<svg width="40" height="40" viewBox="0 0 40 40" fill="none" xmlns="http://www.w3.org/2000/svg">
<path d="M26.1255 11.8297C27.1468 17.6169 18.2957 24.085 15.2638 22.7841C10.0171 22.8176 5.73444 18.2598 5.69828 12.604C5.66212 6.94822 9.88612 2.33609 15.1328 2.30255C20.3796 2.26901 25.1426 6.25984 26.1255 11.8297Z" fill="#D9D9D9"/>
<path d="M15.8044 24.0788C9.69585 24.0788 4.72266 19.1056 4.72266 12.9971C4.72266 6.88237 9.69585 1.90918 15.8044 1.90918C21.919 1.90918 26.8922 6.88237 26.8922 12.9971C26.8922 14.6445 26.5405 16.2302 25.8371 17.7111C25.689 18.0196 25.325 18.1492 25.0165 18.0073C24.708 17.8653 24.5784 17.4951 24.7203 17.1866C25.3373 15.8724 25.652 14.4656 25.652 13.0032C25.652 7.56726 21.2341 3.14939 15.7982 3.14939C10.3684 3.14939 5.95053 7.56726 5.95053 13.0032C5.95053 18.433 10.3684 22.8509 15.7982 22.8509C17.3901 22.8509 18.1984 22.6288 18.3527 22.4745C18.5995 22.2339 18.9882 22.24 19.2227 22.4868C19.4571 22.7336 19.4571 23.1224 19.2103 23.3568C18.729 23.8319 17.5814 24.0788 15.8044 24.0788Z" fill="black"/>
<path d="M19.4511 28.0766H3.69234C2.24851 28.0766 1.07617 26.9042 1.07617 25.4604C1.07617 24.7632 1.34766 24.1091 1.84128 23.6093C2.3349 23.1096 2.99511 22.8442 3.69234 22.8442H18.8217C19.1611 22.8442 19.4387 23.1219 19.4387 23.4613C19.4387 23.8006 19.1611 24.0783 18.8217 24.0783H3.69234C3.32213 24.0783 2.9766 24.2202 2.71745 24.4855C2.4583 24.7447 2.31021 25.0964 2.31021 25.4604C2.31021 26.2255 2.92724 26.8425 3.69234 26.8425H19.4511C19.7904 26.8425 20.0681 27.1202 20.0681 27.4596C20.0681 27.7989 19.7966 28.0766 19.4511 28.0766Z" fill="black"/>
<path d="M20.9583 32.0756H5.52047C4.07664 32.0756 2.9043 30.9033 2.9043 29.4594C2.9043 28.756 3.17579 28.102 3.66323 27.6084C4.15685 27.1148 4.81706 26.8433 5.52047 26.8433H19.4528C19.7922 26.8433 20.0698 27.1209 20.0698 27.4603C20.0698 27.7996 19.7922 28.0773 19.4528 28.0773H5.52047C5.15025 28.0773 4.79855 28.2192 4.5394 28.4845C4.28025 28.7437 4.13834 29.0831 4.13834 29.4594C4.13834 30.2245 4.75536 30.8416 5.52047 30.8416H20.9583C21.2977 30.8416 21.5754 31.1192 21.5754 31.4586C21.5754 31.7979 21.3039 32.0756 20.9583 32.0756Z" fill="black"/>
<path d="M24.2638 36.0793H3.69234C2.24851 36.0793 1.07617 34.907 1.07617 33.4632C1.07617 32.7598 1.34766 32.0995 1.84128 31.6059C2.3349 31.1123 2.98894 30.8408 3.69234 30.8408H20.9566C21.296 30.8408 21.5736 31.1185 21.5736 31.4578C21.5736 31.7972 21.296 32.0749 20.9566 32.0749H3.69234C3.32213 32.0749 2.9766 32.2168 2.71745 32.4821C2.4583 32.7412 2.31021 33.0929 2.31021 33.4632C2.31021 34.2221 2.92724 34.8453 3.69234 34.8453H24.2638C24.6032 34.8453 24.8809 35.1229 24.8809 35.4623C24.8809 35.8017 24.6094 36.0793 24.2638 36.0793Z" fill="black"/>
<path d="M28.5369 38.0913C28.4876 38.0913 28.4382 38.0851 28.395 38.0728C17.9242 35.5553 18.1586 22.277 18.1586 22.1413C18.1648 21.876 18.3376 21.6477 18.5905 21.5675C21.7127 20.5741 22.6752 17.3039 22.6814 17.2668C22.7554 17.0015 22.9961 16.8164 23.2737 16.8164H33.8001C34.0778 16.8164 34.3184 17.0015 34.3925 17.2607C34.4048 17.2915 35.3797 20.5741 38.4833 21.5613C38.7363 21.6415 38.9091 21.8698 38.9152 22.1351C38.9214 22.2709 39.1497 35.5553 28.6788 38.0666C28.6357 38.0851 28.5863 38.0913 28.5369 38.0913ZM19.3988 22.5917C19.4544 24.7636 20.1825 34.7162 28.5369 36.8387C36.8914 34.7224 37.6195 24.7636 37.675 22.5917C34.954 21.5243 33.7508 19.0685 33.3559 18.0566H23.718C23.3231 19.0747 22.1199 21.5304 19.3988 22.5917Z" fill="black"/>
<path d="M27.9186 31.1863C27.7767 31.1863 27.6348 31.137 27.5238 31.0444L24.4386 28.4591C24.1795 28.2431 24.1425 27.8483 24.3646 27.5891C24.5806 27.33 24.9693 27.2929 25.2346 27.5151L27.8014 29.6685L32.7993 22.4678C32.9906 22.184 33.3793 22.1161 33.6569 22.3136C33.9346 22.5048 34.0086 22.8936 33.8112 23.1712L28.4246 30.921C28.3259 31.0629 28.1716 31.1555 27.9989 31.1802C27.9742 31.1802 27.9433 31.1863 27.9186 31.1863Z" fill="black"/>
<path d="M15.7669 17.9697C15.6496 17.9697 15.5262 17.9636 15.409 17.9574C13.5147 17.834 12.2622 16.8406 12.1388 15.3536C12.1079 15.0142 12.3609 14.718 12.7003 14.6872C13.0396 14.6625 13.3358 14.9155 13.3666 15.2548C13.4715 16.5012 15.0141 16.6987 15.483 16.7295C16.7911 16.8097 18.0622 16.31 18.2041 15.6559C18.4015 14.7427 18.5249 14.1442 14.5143 13.0644C12.5398 12.5338 11.9845 11.201 12.1264 10.1336C12.33 8.6157 13.7986 7.37549 15.4028 7.37549C18.2658 7.37549 19.0864 9.15868 19.1173 9.23889C19.253 9.55357 19.1111 9.91762 18.8026 10.0534C18.4941 10.1891 18.1362 10.0534 17.9943 9.74485C17.9634 9.68315 17.4081 8.6157 15.4028 8.6157C14.3045 8.6157 13.453 9.4857 13.3481 10.3002C13.2494 11.0344 13.78 11.5959 14.8351 11.8797C18.3954 12.8361 19.8947 13.6444 19.4134 15.9212C19.1234 17.2848 17.3834 17.9697 15.7669 17.9697Z" fill="black"/>
<path d="M15.7362 20.2409C15.3968 20.2409 15.1191 19.9632 15.1191 19.6239V6.49983C15.1191 6.16047 15.3968 5.88281 15.7362 5.88281C16.0755 5.88281 16.3532 6.16047 16.3532 6.49983V19.6239C16.3532 19.9632 16.0817 20.2409 15.7362 20.2409Z" fill="black"/>
</svg>
