<svg width="55" height="55" viewBox="0 0 55 55" fill="none" xmlns="http://www.w3.org/2000/svg">
<g clip-path="url(#clip0_858_120)">
<path d="M27.4682 0.00268555C26.4823 0.00268555 25.4972 0.0556841 24.5169 0.161337C23.6185 0.253109 22.731 0.403616 21.8555 0.586243C21.6861 0.62169 21.5165 0.659088 21.3471 0.698206C16.1887 1.87266 11.4785 4.51009 7.78131 8.29421C7.4375 8.64661 7.10093 9.00946 6.77181 9.38263C-3.21532 20.8482 -2.01677 38.2391 9.44893 48.2262C20.4258 57.7876 36.9489 57.1514 47.1581 46.7744C47.5026 46.422 47.839 46.0591 48.1676 45.6859C52.5751 40.6667 55.0039 34.2141 55 27.5343C55 12.3289 42.6736 0.00257083 27.4682 0.00268555ZM9.00463 9.67079C9.14963 9.52029 9.30014 9.3762 9.44789 9.23028C9.61859 9.06234 9.78837 8.89348 9.96274 8.73104C10.116 8.58788 10.2738 8.45022 10.4308 8.31073C10.6079 8.15379 10.7841 7.99686 10.9658 7.84544C11.1255 7.71053 11.2898 7.58113 11.4531 7.45082C11.6367 7.30398 11.8202 7.15715 12.0093 7.01582C12.1763 6.89009 12.3461 6.76803 12.5168 6.64873C12.7067 6.5129 12.8976 6.37341 13.0913 6.24676C13.2647 6.1293 13.44 6.0155 13.6162 5.90262C13.8126 5.77689 14.0099 5.653 14.209 5.53553C14.3883 5.4285 14.5688 5.32319 14.7505 5.21983C14.9537 5.1042 15.1576 4.99132 15.3626 4.88119C15.5462 4.78334 15.7297 4.68755 15.9133 4.59394C16.1225 4.48841 16.3336 4.38654 16.5456 4.28651C16.7291 4.19932 16.92 4.11214 17.1091 4.02954C17.3247 3.93777 17.5431 3.846 17.7616 3.75423C17.9515 3.67622 18.1406 3.60005 18.3324 3.52663C18.5545 3.4422 18.7793 3.36328 19.0042 3.28435C19.196 3.21736 19.3878 3.15036 19.5823 3.08704C19.8108 3.01362 20.0412 2.94571 20.2724 2.87872C20.4661 2.82274 20.6579 2.76492 20.8524 2.71261C20.9268 2.69334 21.0011 2.67774 21.0755 2.65846C18.359 5.29612 16.3431 8.56964 15.2103 12.1826C13.0321 11.6081 10.9234 10.7966 8.92204 9.76256C8.95232 9.73044 8.97802 9.69832 9.00463 9.67079ZM7.68495 11.1483C9.88943 12.3427 12.2271 13.2731 14.6496 13.9199C13.462 18.0492 12.8387 22.3201 12.7967 26.6166H1.79316C1.99311 20.9509 4.06498 15.5113 7.68495 11.1483ZM7.68495 43.9202C4.06521 39.5572 1.99334 34.1176 1.79316 28.452H12.7967C12.8387 32.7485 13.4619 37.0194 14.6496 41.1487C12.2272 41.7957 9.88955 42.7259 7.68495 43.9202ZM20.8469 52.3596C20.6616 52.3128 20.4698 52.2523 20.2789 52.1963C20.0467 52.1284 19.8136 52.0605 19.5842 51.9861C19.3905 51.9237 19.1996 51.8567 19.0087 51.7897C18.783 51.7117 18.5572 51.6319 18.3342 51.5465C18.1433 51.474 17.9552 51.3979 17.7661 51.3208C17.5468 51.229 17.3275 51.1372 17.11 51.0455C16.9228 50.9629 16.7365 50.8779 16.5511 50.7903C16.3372 50.6894 16.1243 50.5866 15.9087 50.4801C15.7251 50.3884 15.5416 50.2966 15.358 50.1966C15.1506 50.0855 14.9451 49.9717 14.7395 49.8542C14.5559 49.7524 14.3816 49.6478 14.2045 49.5413C14.0026 49.4202 13.8043 49.2954 13.6061 49.1678C13.4317 49.0567 13.2574 48.9439 13.0858 48.8282C12.8903 48.6961 12.6966 48.5584 12.5048 48.4208C12.3369 48.3005 12.1689 48.1803 12.0038 48.0537C11.8138 47.9105 11.6275 47.7628 11.4421 47.6141C11.2797 47.4847 11.1182 47.3562 10.9594 47.2231C10.7758 47.0708 10.5987 46.912 10.4207 46.7542C10.2647 46.6156 10.1077 46.4789 9.95539 46.3375C9.78011 46.1742 9.61033 46.0044 9.43963 45.8365C9.29188 45.6905 9.14137 45.5465 8.99637 45.3969C8.96976 45.3684 8.94406 45.3391 8.91745 45.3115C10.9187 44.277 13.0274 43.4652 15.2057 42.8906C16.3387 46.5034 18.3545 49.7768 21.0709 52.4147C20.9965 52.3954 20.9213 52.3798 20.8469 52.3596ZM26.5506 53.1581C22.6237 52.6001 19.1813 48.5015 17.0154 42.4491C20.1467 41.748 23.3421 41.3718 26.5506 41.3268V53.1581ZM26.5506 39.4913C23.147 39.536 19.7577 39.9403 16.4391 40.6972C15.2868 36.7158 14.6789 32.5966 14.6321 28.452H26.5506V39.4913ZM26.5506 26.6166H14.6321C14.6788 22.472 15.2867 18.3528 16.4391 14.3714C19.7577 15.1282 23.1471 15.5324 26.5506 15.5773V26.6166ZM26.5506 13.7418C23.342 13.6971 20.1467 13.3209 17.0154 12.6194C19.1813 6.56705 22.6237 2.46849 26.5506 1.91052V13.7418ZM47.2517 11.1483C50.8714 15.5114 52.9433 20.951 53.1435 26.6166H42.14C42.098 22.3201 41.4747 18.0492 40.2871 13.9199C42.7094 13.2727 45.0471 12.3425 47.2517 11.1483ZM34.0824 2.70802C34.2751 2.75574 34.4669 2.81631 34.6578 2.87229C34.89 2.94021 35.1231 3.00812 35.3525 3.08245C35.5461 3.14486 35.737 3.21185 35.9279 3.27885C36.1537 3.35685 36.3794 3.43669 36.6024 3.52204C36.7933 3.59454 36.9814 3.67071 37.1705 3.7478C37.3898 3.83957 37.6092 3.93135 37.8267 4.02312C38.0139 4.10571 38.2002 4.19072 38.3856 4.27825C38.5994 4.3792 38.8123 4.48198 39.028 4.58844C39.2115 4.68021 39.3951 4.77198 39.5786 4.87201C39.786 4.98306 39.9916 5.09686 40.1972 5.21432C40.3807 5.31619 40.5551 5.42081 40.7322 5.52727C40.9341 5.64841 41.1323 5.77322 41.3305 5.90078C41.5049 6.01183 41.6793 6.12471 41.8509 6.24034C42.0464 6.37249 42.2391 6.50923 42.4309 6.64689C42.5998 6.76711 42.7677 6.88825 42.9338 7.01398C43.1229 7.15623 43.3082 7.30398 43.4945 7.45265C43.6561 7.58113 43.8185 7.70962 43.9773 7.8436C44.1608 7.99595 44.3379 8.15471 44.516 8.31256C44.672 8.45114 44.8289 8.58788 44.9812 8.72921C45.1565 8.89256 45.3263 9.06234 45.497 9.23028C45.6448 9.3762 45.7953 9.52028 45.9403 9.66987C45.9669 9.69832 45.9926 9.72769 46.0192 9.75522C44.018 10.7897 41.9093 11.6016 39.7309 12.1762C38.5957 8.56287 36.5773 5.28969 33.8584 2.65296C33.9328 2.67223 34.008 2.68783 34.0824 2.70802ZM28.386 1.91052C32.313 2.46849 35.7554 6.56705 37.9212 12.6194C34.7899 13.3206 31.5945 13.6967 28.386 13.7418V1.91052ZM28.386 15.5773C31.7897 15.5325 35.1789 15.1283 38.4975 14.3714C39.6498 18.3528 40.2577 22.472 40.3045 26.6166H28.386V15.5773ZM28.386 28.452H40.3045C40.2578 32.5966 39.65 36.7158 38.4975 40.6972C35.1789 39.9404 31.7897 39.5362 28.386 39.4913V28.452ZM28.386 53.1581V41.3268C31.5946 41.3715 34.7899 41.7477 37.9212 42.4491C35.7554 48.5015 32.313 52.6001 28.386 53.1581ZM45.932 45.3978C45.787 45.5474 45.6374 45.6915 45.4897 45.8374C45.319 46.0053 45.1483 46.1751 44.973 46.3385C44.8206 46.4807 44.6637 46.6138 44.5077 46.756C44.3297 46.9139 44.1525 47.0717 43.9708 47.2241C43.8102 47.358 43.6469 47.4874 43.4835 47.6178C43.3 47.7646 43.1164 47.9114 42.9274 48.0528C42.7604 48.1785 42.5906 48.3005 42.4199 48.4198C42.2299 48.5557 42.039 48.6952 41.8454 48.8218C41.6719 48.9393 41.4967 49.0531 41.3204 49.165C41.1241 49.2917 40.9262 49.4141 40.7267 49.5321C40.5431 49.6395 40.3679 49.7441 40.1871 49.8478C39.9839 49.9635 39.7796 50.0763 39.574 50.1865C39.3905 50.2843 39.2069 50.3801 39.0234 50.4737C38.8141 50.5793 38.6031 50.6811 38.3911 50.7812C38.2075 50.8683 38.0166 50.9555 37.8276 51.0381C37.6119 51.1299 37.3935 51.2217 37.1751 51.3134C36.9851 51.3905 36.7961 51.4676 36.6052 51.5401C36.3813 51.6255 36.1564 51.7053 35.9307 51.7833C35.7398 51.8503 35.5489 51.9173 35.3552 51.9797C35.1258 52.054 34.8964 52.1219 34.6624 52.1889C34.4706 52.2458 34.2778 52.3027 34.0842 52.355C34.0099 52.3743 33.9355 52.3899 33.8612 52.4092C36.5776 49.7715 38.5935 46.498 39.7264 42.8851C41.9046 43.4595 44.0133 44.271 46.0146 45.3051C45.9843 45.3381 45.9586 45.3703 45.932 45.3978ZM47.2517 43.9202C45.0472 42.7258 42.7095 41.7955 40.2871 41.1487C41.4746 37.0194 42.098 32.7485 42.14 28.452H53.1435C52.9437 34.1176 50.8717 39.5573 47.2517 43.9202Z" fill="black"/>
</g>
<defs>
<clipPath id="clip0_858_120">
<rect width="55" height="55" fill="white"/>
</clipPath>
</defs>
</svg>
