<svg width="40" height="40" viewBox="0 0 40 40" fill="none" xmlns="http://www.w3.org/2000/svg">
<path d="M20.0071 0.00439475C12.0046 0.00322832 4.77209 4.77332 1.62233 12.1299L1.37305 12.2125L1.46969 12.5025C-2.67744 22.7308 2.25228 34.3845 12.4806 38.5316C14.8696 39.5003 17.4233 39.9975 20.0012 39.9961C31.0445 39.9977 39.9983 31.0466 40 20.0032C40.0017 8.95986 31.0505 0.00597775 20.0071 0.00439475ZM35.6916 30.0818L34.6648 29.0557V26.6655C34.6659 26.5624 34.6431 26.4604 34.5981 26.3676L31.9987 21.176V18.6672C31.9987 18.4444 31.8874 18.2363 31.7021 18.1126L29.7025 16.7796C29.5458 16.6749 29.352 16.6415 29.1693 16.6876L26.7204 17.2995L22.6073 15.5345L22.0414 11.57L23.6097 10.0023H26.9764L28.1095 11.7053C28.2118 11.8584 28.373 11.9625 28.5547 11.9926L32.5539 12.6591C32.661 12.6771 32.7708 12.6683 32.8738 12.6338L36.557 11.406C39.6463 17.3344 39.3159 24.4646 35.6916 30.0818ZM32.9425 6.57236L31.8587 7.29488L28.8373 6.69034L26.8771 6.03781C26.7571 5.99706 26.6279 5.9919 26.5051 6.02314L24.027 6.64235L22.9406 6.28042L23.7457 4.67009H25.9999C26.1033 4.67017 26.2053 4.64626 26.2979 4.6001L28.604 3.44701C30.1922 4.276 31.6532 5.32845 32.9425 6.57236ZM12.7007 2.82581L14.3004 3.89225C14.379 3.94457 14.4678 3.97957 14.561 3.9949L17.791 4.53345L17.4757 5.47659L15.7927 6.03847C15.642 6.08863 15.5141 6.19094 15.4321 6.32708L13.5178 9.51708L10.4432 11.362L5.91077 12.0092C5.58225 12.0556 5.33797 12.3367 5.33755 12.6684V14.668C5.33755 14.8448 5.40787 15.0143 5.53285 15.1392L6.67061 16.277V17.4221L3.89785 15.5732L2.89206 12.5558C4.80566 8.18336 8.31302 4.70408 12.7007 2.82581ZM10.8031 24.6793L7.79038 24.076L6.67061 21.8425V20.2762L9.15409 17.7927L10.0732 19.6316C10.1861 19.8576 10.4172 20.0003 10.6698 20.0002H14.9582L16.7638 23.0096C16.8843 23.2101 17.1011 23.3328 17.3351 23.3329H19.188L18.7214 25.6704L16.198 28.1939C16.0727 28.3187 16.0022 28.4882 16.002 28.6651V30.3314L13.6025 32.131C13.4347 32.2569 13.3359 32.4545 13.3359 32.6643V35.0718L12.5067 34.7971L11.3363 31.8698V25.3325C11.3364 25.0157 11.1134 24.7426 10.8031 24.6793ZM8.7995 34.9255C2.51506 30.2108 -0.142638 22.0645 2.15222 14.5507L2.7061 16.2117C2.75276 16.3522 2.84491 16.4733 2.96805 16.5556L6.29069 18.7705L5.53285 19.529C5.40787 19.654 5.33755 19.8234 5.33755 20.0002V21.9998C5.33747 22.1032 5.36138 22.2052 5.40754 22.2978L6.74059 24.9639C6.83291 25.148 7.00512 25.2791 7.20716 25.3191L10.0066 25.8783V31.9977C10.0065 32.0824 10.0226 32.1664 10.0539 32.245L11.387 35.5777C11.4599 35.7597 11.6094 35.9004 11.7955 35.9622L13.7951 36.6288C13.8619 36.6514 13.9319 36.6631 14.0024 36.6634C14.3705 36.6634 14.6689 36.365 14.6689 35.9969V32.9975L17.0684 31.1979C17.2362 31.072 17.3351 30.8745 17.3351 30.6647V28.941L19.8059 26.4702C19.8988 26.3772 19.9621 26.2586 19.9878 26.1296L20.6544 22.797C20.7265 22.436 20.4924 22.0849 20.1314 22.0127C20.0885 22.0041 20.0449 21.9998 20.0012 21.9998H17.7123L15.9067 18.9904C15.7862 18.7899 15.5694 18.6673 15.3355 18.6672H11.0817L9.93659 16.3697C9.8407 16.1779 9.6584 16.0439 9.4467 16.0097C9.23507 15.9732 9.01904 16.043 8.86882 16.1964L8.00366 17.0582V16.0011C8.00366 15.8243 7.93335 15.6548 7.80837 15.5298L6.67061 14.3921V13.2463L10.7644 12.6618C10.8523 12.649 10.9369 12.6188 11.013 12.5731L14.3457 10.5735C14.4392 10.5174 14.5175 10.4391 14.5736 10.3456L16.4466 7.22422L18.2122 6.63501C18.4116 6.56961 18.568 6.41323 18.6334 6.21377L19.3 4.21418C19.4155 3.86467 19.2257 3.48767 18.8762 3.37219C18.844 3.36153 18.8109 3.35336 18.7774 3.3477L14.9196 2.7045L14.2417 2.25259C18.4361 0.887378 22.979 1.05634 27.0604 2.72916L25.8426 3.33703H23.3338C23.0799 3.33562 22.8474 3.47859 22.7339 3.70562L21.4009 6.37174C21.2367 6.70117 21.3705 7.10142 21.7 7.26563C21.7281 7.27963 21.757 7.29163 21.7868 7.30154L23.7864 7.96807C23.9064 8.00881 24.0355 8.01398 24.1583 7.98273L26.6364 7.36353L28.4521 7.96807C28.4781 7.9774 28.5048 7.98457 28.5321 7.9894L31.8647 8.65593C32.038 8.69125 32.2183 8.65576 32.3653 8.55728L33.8823 7.54549C34.6289 8.37707 35.2998 9.27355 35.8872 10.2243L32.6079 11.3174L29.0573 10.7255L27.8842 8.96586C27.7612 8.78148 27.5546 8.67034 27.333 8.66926H23.3338C23.157 8.66926 22.9875 8.73957 22.8626 8.86455L20.863 10.8641C20.7145 11.0125 20.6446 11.2222 20.6744 11.43L21.3409 16.0957C21.3745 16.3264 21.5261 16.5228 21.7408 16.6136L26.4065 18.6132C26.5401 18.6711 26.6893 18.683 26.8304 18.6472L29.2106 18.052L30.6656 19.0238V21.3333C30.6644 21.4364 30.6873 21.5384 30.7323 21.6312L33.3317 26.8228V29.3316C33.3317 29.5084 33.402 29.6779 33.527 29.8029L34.9214 31.1979C28.7374 39.4406 17.0422 41.1096 8.7995 34.9255Z" fill="black"/>
</svg>
