<svg width="35" height="35" viewBox="0 0 35 35" fill="none" xmlns="http://www.w3.org/2000/svg">
<path d="M0.546877 34.9984C0.621473 34.9984 35.9005 34.9984 34.4533 34.9984C34.7552 34.9984 35.0002 34.7534 35.0002 34.4515C35.0002 34.1496 34.7552 33.9046 34.4533 33.9046H32.3947V10.4953H33.4478C34.4686 10.4953 35.0912 9.37015 34.5501 8.50472L29.6005 0.609175C29.1008 -0.188011 27.9424 -0.207013 27.4186 0.577131L22.1343 8.47196C21.5569 9.33418 22.1761 10.4953 23.2152 10.4953H24.2185V33.9046H21.5853V16.6089C21.5853 15.5034 20.6859 14.6037 19.5801 14.6037H15.4158C14.31 14.6037 13.4106 15.5034 13.4106 16.6089V33.9046H10.7795V24.0377C10.7795 22.9322 9.88011 22.0325 8.77425 22.0325H4.61001C3.50415 22.0325 2.60479 22.9322 2.60479 24.0377V33.9046H0.546877C0.244955 33.9046 0 34.1496 0 34.4515C0 34.7534 0.244955 34.9984 0.546877 34.9984ZM24.7654 9.40158H23.2152C23.0499 9.40158 22.9507 9.21788 23.0429 9.08008L28.328 1.18489C28.4057 1.0688 28.5885 1.05427 28.674 1.19059L33.623 9.08542C33.7097 9.22365 33.611 9.40158 33.4478 9.40158H31.8478C31.5459 9.40158 31.3009 9.64654 31.3009 9.94846V33.9046H25.3123V9.94846C25.3123 9.64654 25.0674 9.40158 24.7654 9.40158ZM14.5044 16.6089C14.5044 16.1062 14.9131 15.6974 15.4158 15.6974H19.5801C20.0828 15.6974 20.4915 16.1062 20.4915 16.6089V33.9046H14.5044V16.6089ZM3.69854 24.0377C3.69854 23.5349 4.10728 23.1262 4.61001 23.1262H8.77425C9.27698 23.1262 9.68571 23.5349 9.68571 24.0377V33.9046H3.69854V24.0377Z" fill="black"/>
</svg>
