<svg width="60" height="60" viewBox="0 0 60 60" fill="none" xmlns="http://www.w3.org/2000/svg">
<path d="M38.4791 48.4868C39.0048 48.4881 39.5255 48.3848 40.011 48.1831C40.4965 47.9814 40.9371 47.6853 41.3071 47.3118L42.0141 46.6018C42.415 46.1982 42.7257 45.714 42.9255 45.1813C43.1253 44.6486 43.2097 44.0796 43.1731 43.5118C43.7399 43.5471 44.3077 43.4613 44.8388 43.2601C45.3699 43.0588 45.852 42.7468 46.2531 42.3448L46.9601 41.6348C47.361 41.2312 47.6717 40.747 47.8715 40.2143C48.0713 39.6816 48.1557 39.1126 48.1191 38.5448C48.6858 38.5783 49.2532 38.4915 49.784 38.2902C50.3148 38.0889 50.7971 37.7777 51.1991 37.3768L51.9051 36.6668L54.7311 33.8288C58.0994 30.4328 59.9893 25.8434 59.9893 21.0603C59.9893 16.2772 58.0994 11.6879 54.7311 8.29182C51.484 5.02508 47.1046 3.13274 42.5003 3.00689C37.896 2.88104 33.4198 4.53133 29.9991 7.61582C26.5782 4.53137 22.102 2.88102 17.4976 3.00668C12.8932 3.13234 8.51362 5.02438 5.2661 8.29082C1.89778 11.687 0.0078125 16.2766 0.0078125 21.0598C0.0078125 25.8431 1.89778 30.4326 5.2661 33.8288L11.6251 40.2158L12.3321 40.9248C12.7018 41.2984 13.1422 41.5947 13.6275 41.7964C14.1129 41.9981 14.6335 42.1013 15.1591 42.0998C15.2511 42.0998 15.3391 42.0788 15.4301 42.0728C15.3871 42.6424 15.4666 43.2146 15.6633 43.7508C15.8599 44.2871 16.1691 44.775 16.5701 45.1818L17.2771 45.8918C17.647 46.2651 18.0874 46.5612 18.5727 46.7629C19.058 46.9647 19.5786 47.0679 20.1041 47.0668C20.1961 47.0668 20.2841 47.0468 20.3741 47.0408C20.3311 47.6101 20.4108 48.182 20.6078 48.7178C20.8048 49.2537 21.1146 49.741 21.5161 50.1468L22.2221 50.8568C22.5921 51.2306 23.0328 51.5271 23.5185 51.7289C24.0042 51.9308 24.5251 52.0341 25.0511 52.0328C25.1421 52.0328 25.2301 52.0128 25.3211 52.0068C25.279 52.575 25.3589 53.1455 25.5555 53.6802C25.7522 54.2149 26.0609 54.7013 26.4611 55.1068L27.1701 55.8188C27.5397 56.1935 27.9802 56.491 28.4659 56.6937C28.9516 56.8965 29.4728 57.0005 29.9991 56.9998C30.5245 57.0011 31.0449 56.8979 31.5301 56.6961C32.0153 56.4944 32.4555 56.1982 32.8251 55.8248L37.0621 51.5698C37.4639 51.1636 37.7738 50.6758 37.9708 50.1394C38.1679 49.603 38.2474 49.0306 38.2041 48.4608C38.2951 48.4668 38.3841 48.4868 38.4761 48.4868H38.4791ZM53.3141 9.69982C56.3104 12.7202 57.9917 16.8023 57.9917 21.0568C57.9917 25.3113 56.3104 29.3934 53.3141 32.4138L52.9251 32.8048C52.7513 32.1235 52.3997 31.5006 51.9061 30.9998L36.3601 15.3878C35.7894 14.8402 35.029 14.5345 34.2381 14.5345C33.4472 14.5345 32.6868 14.8402 32.1161 15.3878L24.3441 23.1928C23.5847 23.9223 22.5726 24.3297 21.5196 24.3297C20.4666 24.3297 19.4545 23.9223 18.6951 23.1928C18.5069 23.0033 18.4013 22.747 18.4013 22.4798C18.4013 22.2127 18.5069 21.9564 18.6951 21.7668L30.7081 9.69982C32.1889 8.21031 33.9496 7.02826 35.8889 6.22166C37.8281 5.41505 39.9078 4.9998 42.0081 4.9998C44.1084 4.9998 46.1881 5.41505 48.1273 6.22166C50.0666 7.02826 51.8273 8.21031 53.3081 9.69982H53.3141ZM6.6841 9.69982C9.55065 6.80999 13.4163 5.12958 17.4848 5.00475C21.5533 4.87992 25.5148 6.32017 28.5531 9.02882L17.2791 20.3538C16.7181 20.9188 16.4033 21.6827 16.4033 22.4788C16.4033 23.275 16.7181 24.0388 17.2791 24.6038C17.8352 25.1626 18.4962 25.606 19.2242 25.9085C19.9522 26.211 20.7328 26.3668 21.5211 26.3668C22.3094 26.3668 23.09 26.211 23.818 25.9085C24.5459 25.606 25.207 25.1626 25.7631 24.6038L33.5341 16.7998C33.7229 16.617 33.9753 16.5148 34.2381 16.5148C34.5009 16.5148 34.7533 16.617 34.9421 16.7998L50.4881 32.4098C50.8638 32.7879 51.0747 33.2993 51.0747 33.8323C51.0747 34.3654 50.8638 34.8767 50.4881 35.2548L49.7811 35.9648C49.4021 36.3296 48.8966 36.5333 48.3706 36.5333C47.8446 36.5333 47.3391 36.3296 46.9601 35.9648L35.6541 24.6108C35.4669 24.4228 35.2126 24.3168 34.9472 24.3163C34.6819 24.3157 34.4271 24.4206 34.2391 24.6078C34.0511 24.7951 33.9451 25.0493 33.9445 25.3147C33.944 25.5801 34.0489 25.8348 34.2361 26.0228L45.5421 37.3768C45.9177 37.7552 46.1284 38.2667 46.1284 38.7998C46.1284 39.3329 45.9177 39.8444 45.5421 40.2228L44.8361 40.9328C44.4568 41.2969 43.9514 41.5002 43.4256 41.5002C42.8998 41.5002 42.3944 41.2969 42.0151 40.9328L30.7081 29.5778C30.6154 29.4847 30.5052 29.4108 30.384 29.3602C30.2627 29.3097 30.1326 29.2835 30.0012 29.2833C29.8698 29.283 29.7397 29.3086 29.6182 29.3586C29.4967 29.4086 29.3862 29.4821 29.2931 29.5748C29.2 29.6675 29.1261 29.7777 29.0755 29.899C29.025 30.0203 28.9988 30.1503 28.9985 30.2817C28.9983 30.4131 29.0239 30.5433 29.0739 30.6648C29.1239 30.7863 29.1974 30.8967 29.2901 30.9898L40.5991 42.3448C40.974 42.723 41.1843 43.2339 41.1843 43.7663C41.1843 44.2988 40.974 44.8097 40.5991 45.1878L39.8921 45.8988C39.7073 46.085 39.4875 46.2328 39.2453 46.3336C39.0032 46.4345 38.7434 46.4864 38.4811 46.4864C38.2188 46.4864 37.959 46.4345 37.7169 46.3336C37.4747 46.2328 37.2549 46.085 37.0701 45.8988C37.0701 45.8938 37.0571 45.8918 37.0511 45.8868L36.3651 45.1868C35.956 44.7935 35.4682 44.4914 34.9339 44.3002C34.3996 44.1091 33.8308 44.0333 33.2651 44.0778C33.3144 43.5025 33.2382 42.9233 33.0417 42.3803C32.8452 41.8373 32.5332 41.3434 32.1271 40.9328L31.4211 40.2218C31.0509 39.8482 30.6102 39.5519 30.1246 39.35C29.6389 39.1481 29.118 39.0447 28.5921 39.0458C28.5001 39.0458 28.4121 39.0658 28.3211 39.0718C28.3644 38.5025 28.285 37.9306 28.0883 37.3946C27.8917 36.8586 27.5823 36.371 27.1811 35.9648L26.4741 35.2538C26.0659 34.8591 25.5784 34.5557 25.0439 34.364C24.5093 34.1722 23.9401 34.0965 23.3741 34.1418C23.4219 33.5664 23.3442 32.9874 23.1464 32.4449C22.9485 31.9024 22.6352 31.4094 22.2281 30.9998L21.5221 30.2888C21.1513 29.916 20.7105 29.6202 20.225 29.4183C19.7395 29.2164 19.2189 29.1125 18.6931 29.1125C18.1673 29.1125 17.6467 29.2164 17.1612 29.4183C16.6757 29.6202 16.2349 29.916 15.8641 30.2888L11.6251 34.5458C11.1312 35.0486 10.7799 35.6736 10.6071 36.3568L6.6841 32.4168C3.68714 29.3962 2.00544 25.3135 2.00544 21.0583C2.00544 16.8032 3.68714 12.7205 6.6841 9.69982ZM15.1601 40.0998C14.8979 40.1003 14.6382 40.0487 14.3962 39.9479C14.1541 39.8471 13.9345 39.6992 13.7501 39.5128L13.0441 38.8038C12.6685 38.4253 12.4577 37.9136 12.4577 37.3803C12.4577 36.847 12.6685 36.3354 13.0441 35.9568L17.2821 31.6998C17.4669 31.5136 17.6867 31.3659 17.9289 31.265C18.171 31.1642 18.4308 31.1123 18.6931 31.1123C18.9554 31.1123 19.2152 31.1642 19.4573 31.265C19.6995 31.3659 19.9193 31.5136 20.1041 31.6998L20.8111 32.4108C21.1867 32.7892 21.3974 33.3007 21.3974 33.8338C21.3974 34.3669 21.1867 34.8784 20.8111 35.2568L16.5711 39.5138C16.3865 39.7002 16.1667 39.848 15.9245 39.9486C15.6822 40.0492 15.4224 40.1006 15.1601 40.0998ZM20.1061 45.0668C19.8439 45.0673 19.5842 45.0157 19.3422 44.9149C19.1001 44.8141 18.8805 44.6662 18.6961 44.4798L17.9891 43.7708C17.6135 43.3923 17.4027 42.8806 17.4027 42.3473C17.4027 41.814 17.6135 41.3024 17.9891 40.9238L22.2281 36.6668C22.4132 36.481 22.6331 36.3335 22.8754 36.2329C23.1176 36.1322 23.3773 36.0804 23.6396 36.0804C23.9019 36.0804 24.1616 36.1322 24.4038 36.2329C24.6461 36.3335 24.866 36.481 25.0511 36.6668L25.7571 37.3778C26.1327 37.7564 26.3435 38.268 26.3435 38.8013C26.3435 39.3346 26.1327 39.8463 25.7571 40.2248L21.5181 44.4798C21.3336 44.6667 21.1137 44.8149 20.8712 44.9158C20.6288 45.0168 20.3687 45.0675 20.1061 45.0668ZM23.6421 49.4468L22.9351 48.7358C22.5591 48.3579 22.3481 47.8464 22.3481 47.3133C22.3481 46.7802 22.5591 46.2688 22.9351 45.8908L27.1741 41.6338C27.5535 41.2695 28.0591 41.066 28.5851 41.066C29.1111 41.066 29.6167 41.2695 29.9961 41.6338L30.7031 42.3448C31.0776 42.7227 31.2877 43.2333 31.2877 43.7653C31.2877 44.2974 31.0776 44.8079 30.7031 45.1858L30.6971 45.1908L26.4601 49.4458V49.4508C26.0808 49.8141 25.5757 50.0166 25.0505 50.016C24.5253 50.0155 24.0207 49.8119 23.6421 49.4478V49.4468ZM35.6421 50.1568L31.4091 54.4138C31.2244 54.5997 31.0048 54.7472 30.7629 54.8478C30.521 54.9485 30.2616 55.0003 29.9996 55.0003C29.7376 55.0003 29.4782 54.9485 29.2363 54.8478C28.9944 54.7472 28.7748 54.5997 28.5901 54.4138L27.8811 53.7028C27.5066 53.3249 27.2965 52.8144 27.2965 52.2823C27.2965 51.7503 27.5066 51.2397 27.8811 50.8618L32.1211 46.5998C32.3047 46.4157 32.523 46.2697 32.7632 46.1701C33.0035 46.0706 33.261 46.0195 33.5211 46.0198C34.0509 46.0189 34.5595 46.2282 34.9351 46.6018L35.6351 47.3178C36.0113 47.694 36.2235 48.2036 36.2256 48.7356C36.2276 49.2675 36.0193 49.7788 35.6461 50.1578L35.6421 50.1568Z" fill="url(#paint0_linear_6_25)"/>
<defs>
<linearGradient id="paint0_linear_6_25" x1="-6.64816" y1="-10.7812" x2="71.9431" y2="-8.47921" gradientUnits="userSpaceOnUse">
<stop stop-color="#4AA1FF"/>
<stop offset="0.4375" stop-color="#B5D9D7"/>
<stop offset="1" stop-color="#4AA1FF"/>
</linearGradient>
</defs>
</svg>
