<svg width="19" height="19" viewBox="0 0 19 19" fill="none" xmlns="http://www.w3.org/2000/svg">
<path d="M9.50234 5.61126C7.34284 5.61126 5.60098 7.35312 5.60098 9.51261C5.60098 11.6721 7.34284 13.414 9.50234 13.414C11.6618 13.414 13.4037 11.6721 13.4037 9.51261C13.4037 7.35312 11.6618 5.61126 9.50234 5.61126ZM9.50234 12.049C8.10681 12.049 6.96595 10.9115 6.96595 9.51261C6.96595 8.11369 8.10342 6.97622 9.50234 6.97622C10.9013 6.97622 12.0387 8.11369 12.0387 9.51261C12.0387 10.9115 10.8979 12.049 9.50234 12.049ZM14.4732 5.45167C14.4732 5.95759 14.0658 6.36165 13.5633 6.36165C13.0574 6.36165 12.6533 5.9542 12.6533 5.45167C12.6533 4.94915 13.0608 4.5417 13.5633 4.5417C14.0658 4.5417 14.4732 4.94915 14.4732 5.45167ZM17.0572 6.37523C16.9995 5.15627 16.721 4.07652 15.828 3.18692C14.9384 2.29732 13.8587 2.01889 12.6397 1.95777C11.3834 1.88647 7.61787 1.88647 6.36156 1.95777C5.146 2.0155 4.06625 2.29392 3.17325 3.18353C2.28025 4.07313 2.00522 5.15288 1.9441 6.37184C1.8728 7.62815 1.8728 11.3937 1.9441 12.65C2.00183 13.869 2.28025 14.9487 3.17325 15.8383C4.06625 16.7279 5.1426 17.0063 6.36156 17.0674C7.61787 17.1388 11.3834 17.1388 12.6397 17.0674C13.8587 17.0097 14.9384 16.7313 15.828 15.8383C16.7176 14.9487 16.9961 13.869 17.0572 12.65C17.1285 11.3937 17.1285 7.63154 17.0572 6.37523ZM15.4342 13.998C15.1693 14.6635 14.6566 15.1762 13.9877 15.4444C12.9861 15.8417 10.6092 15.75 9.50234 15.75C8.39543 15.75 6.01523 15.8383 5.01697 15.4444C4.35146 15.1796 3.83875 14.6669 3.57052 13.998C3.17325 12.9963 3.26493 10.6195 3.26493 9.51261C3.26493 8.4057 3.17665 6.0255 3.57052 5.02725C3.83536 4.36174 4.34807 3.84903 5.01697 3.58079C6.01862 3.18353 8.39543 3.2752 9.50234 3.2752C10.6092 3.2752 12.9894 3.18692 13.9877 3.58079C14.6532 3.84564 15.1659 4.35835 15.4342 5.02725C15.8314 6.0289 15.7397 8.4057 15.7397 9.51261C15.7397 10.6195 15.8314 12.9997 15.4342 13.998Z" fill="black"/>
</svg>
