<svg width="110" height="110" viewBox="0 0 110 110" fill="none" xmlns="http://www.w3.org/2000/svg">
<rect x="1" y="1" width="108" height="108" rx="33" fill="white" fill-opacity="0.1" stroke="url(#paint0_linear_17_128)" stroke-width="2"/>
<path d="M52.9012 26.5946C50.4911 27.8352 49.2151 29.9972 49.1797 32.6554C49.1797 36.1288 52.4759 39.4604 55.9139 39.4604C57.1189 39.4604 59.1392 38.6807 60.2025 37.7946C63.1088 35.3491 63.4278 30.8478 60.9113 27.9769C59.2809 26.0984 55.1696 25.3896 52.9012 26.5946Z" fill="url(#paint1_linear_17_128)"/>
<path d="M36.1697 27.056C31.2432 28.2256 29.6837 34.8889 33.5469 38.1496C37.7647 41.6939 44.1798 38.823 44.2153 33.3294C44.2153 30.5648 42.0887 27.8357 39.3596 27.0914C37.871 26.6661 37.7647 26.6661 36.1697 27.056Z" fill="url(#paint2_linear_17_128)"/>
<path d="M71.901 27.0916C68.4276 28.4738 66.6909 32.3726 68.1086 35.6688C68.7466 37.2283 70.8377 39.0004 72.5744 39.4612C75.2681 40.2055 78.5997 38.646 79.8402 36.0941C80.5845 34.4991 80.62 31.7346 79.9111 30.3523C78.4225 27.5523 74.6301 25.9928 71.901 27.0916Z" fill="url(#paint3_linear_17_128)"/>
<path d="M48.3674 41.0555C46.2763 41.8352 45.0712 42.8631 44.256 44.5289C43.5826 45.8757 43.5117 46.7264 43.5117 51.6529V57.2529L44.6813 56.2251C50.9547 50.696 60.8788 50.696 67.1522 56.2251L68.3218 57.2529V51.8302C68.3218 45.6985 67.9319 44.2808 65.8762 42.5441C64.8484 41.6935 61.8357 40.5238 60.6307 40.5238C60.3471 40.5238 59.213 41.1618 58.0788 41.9416L55.9876 43.3238L54.0383 41.9416C51.8763 40.3821 50.7066 40.2049 48.3674 41.0555Z" fill="url(#paint4_linear_17_128)"/>
<path d="M40.2146 42.3318L38.1589 43.785L36.3159 42.509C34.1184 40.985 33.2678 40.9495 30.8222 42.1546C29.5108 42.828 28.7311 43.5014 28.0931 44.5647C27.2425 46.0179 27.207 46.3369 27.207 51.8305V57.5723L28.9792 60.1951L30.7513 62.8179V69.5875C30.7513 78.2001 30.4323 77.7393 36.564 77.7393H40.9589L40.0019 75.5064C39.1868 73.5571 39.0804 72.8482 39.0804 69.0558C39.0804 64.9799 39.1159 64.6963 40.25 62.2862C41.2424 60.2305 41.3842 59.5925 41.0652 59.0255C40.8171 58.5647 40.6754 55.871 40.6754 51.9723C40.6754 46.0533 40.7462 45.5571 41.526 43.8559C41.9868 42.8635 42.5538 41.9065 42.7665 41.8002C43.2981 41.4457 43.2627 40.8787 42.6956 40.8787C42.483 40.8787 41.3488 41.5166 40.2146 42.3318Z" fill="url(#paint5_linear_17_128)"/>
<path d="M69.8409 42.7218L70.9751 44.5293L71.0814 51.0863C71.1877 55.623 71.0814 57.9268 70.7624 58.6357C70.408 59.5572 70.4789 59.947 71.5067 62.2154C73.4915 66.504 73.3852 71.8913 71.2941 76.9242C70.9751 77.6685 79.8004 77.5622 80.5092 76.8179C80.97 76.3571 81.0763 75.1875 81.0763 69.4812V62.7116L82.8839 59.9825L84.6561 57.2534L84.5497 51.2635C84.4434 45.2382 84.4434 45.2382 83.4156 43.8914C82.3168 42.4737 79.9421 41.1977 78.2409 41.1623C77.6029 41.1268 76.5751 41.623 75.4409 42.4382L73.6333 43.7142L71.7194 42.2964C69.0257 40.2762 68.3877 40.3825 69.8409 42.7218Z" fill="url(#paint6_linear_17_128)"/>
<path d="M52.2649 54.7009C49.9611 55.3035 47.3383 56.8275 45.4598 58.7414C36.9535 67.2478 41.6674 81.7085 53.6826 83.7996C60.9484 85.0756 68.3205 80.1136 70.3053 72.5997C72.0775 65.9718 68.5686 58.7769 62.0117 55.6579C60.1687 54.8073 59.2117 54.5946 56.6952 54.4883C54.994 54.4174 53.0092 54.5237 52.2649 54.7009ZM65.2724 63.4199C65.5914 63.7035 65.8395 64.2351 65.8395 64.5895C65.8395 65.5111 55.3484 76.4629 54.3206 76.6047C53.6117 76.711 52.8674 76.1085 50.4573 73.5921C47.4801 70.544 46.9484 69.4807 47.8345 68.5946C48.756 67.6731 49.8193 68.1693 52.0168 70.544L54.1788 72.9541L55.632 71.3591C60.3104 66.2908 63.7838 62.8528 64.2092 62.8528C64.4927 62.8528 64.9889 63.1009 65.2724 63.4199Z" fill="url(#paint7_linear_17_128)"/>
<defs>
<linearGradient id="paint0_linear_17_128" x1="-12.2064" y1="-28.0729" x2="131.945" y2="-24.2717" gradientUnits="userSpaceOnUse">
<stop stop-color="#4AA1FF"/>
<stop offset="0.4375" stop-color="#B5D9D7"/>
<stop offset="1" stop-color="#4AA1FF"/>
</linearGradient>
<linearGradient id="paint1_linear_17_128" x1="47.6895" y1="42.8957" x2="65.2879" y2="42.4327" gradientUnits="userSpaceOnUse">
<stop stop-color="#4AA1FF"/>
<stop offset="0.4375" stop-color="#B5D9D7"/>
<stop offset="1" stop-color="#4AA1FF"/>
</linearGradient>
<linearGradient id="paint2_linear_17_128" x1="29.9545" y1="43.0129" x2="46.7764" y2="42.5729" gradientUnits="userSpaceOnUse">
<stop stop-color="#4AA1FF"/>
<stop offset="0.4375" stop-color="#B5D9D7"/>
<stop offset="1" stop-color="#4AA1FF"/>
</linearGradient>
<linearGradient id="paint3_linear_17_128" x1="66.192" y1="42.9422" x2="82.9768" y2="42.5031" gradientUnits="userSpaceOnUse">
<stop stop-color="#4AA1FF"/>
<stop offset="0.4375" stop-color="#B5D9D7"/>
<stop offset="1" stop-color="#4AA1FF"/>
</linearGradient>
<linearGradient id="paint4_linear_17_128" x1="40.7586" y1="61.5223" x2="73.2444" y2="60.2519" gradientUnits="userSpaceOnUse">
<stop stop-color="#4AA1FF"/>
<stop offset="0.4375" stop-color="#B5D9D7"/>
<stop offset="1" stop-color="#4AA1FF"/>
</linearGradient>
<linearGradient id="paint5_linear_17_128" x1="25.4385" y1="87.1519" x2="46.3354" y2="86.9137" gradientUnits="userSpaceOnUse">
<stop stop-color="#4AA1FF"/>
<stop offset="0.4375" stop-color="#B5D9D7"/>
<stop offset="1" stop-color="#4AA1FF"/>
</linearGradient>
<linearGradient id="paint6_linear_17_128" x1="67.3538" y1="86.7635" x2="87.7748" y2="86.5342" gradientUnits="userSpaceOnUse">
<stop stop-color="#4AA1FF"/>
<stop offset="0.4375" stop-color="#B5D9D7"/>
<stop offset="1" stop-color="#4AA1FF"/>
</linearGradient>
<linearGradient id="paint7_linear_17_128" x1="37.8449" y1="91.5367" x2="76.6736" y2="90.5094" gradientUnits="userSpaceOnUse">
<stop stop-color="#4AA1FF"/>
<stop offset="0.4375" stop-color="#B5D9D7"/>
<stop offset="1" stop-color="#4AA1FF"/>
</linearGradient>
</defs>
</svg>
