<svg width="110" height="110" viewBox="0 0 110 110" fill="none" xmlns="http://www.w3.org/2000/svg">
<rect x="1" y="1" width="108" height="108" rx="33" fill="white" fill-opacity="0.1" stroke="url(#paint0_linear_840_184)" stroke-width="2"/>
<path d="M50.9308 27.1487C50.7692 27.223 50.5566 27.3965 50.463 27.5204C50.2929 27.7434 50.2844 27.8755 50.2589 30.0478L50.2334 32.3439L49.1702 32.6082C43.7014 33.938 40.1718 37.1345 39.1682 41.6442C38.9215 42.7592 38.896 45.138 39.1257 46.3025C39.7806 49.7303 41.8133 52.4476 45.479 54.7686C47.3501 55.9579 50.6841 57.4281 54.1542 58.601C56.5442 59.4022 57.7264 59.9721 58.798 60.8476C59.589 61.4918 59.9377 62.1278 59.9377 62.9125C59.9292 64.9774 58.747 66.3071 56.4932 66.7697C55.5576 66.9597 53.831 66.9597 52.8785 66.7697C50.8117 66.3567 48.6769 65.2086 46.321 63.2511C44.3478 61.6075 44.0927 61.4918 43.3357 61.8635C43.004 62.0287 40.9117 63.9119 38.2752 66.4228C37.0164 67.6204 36.8633 67.8682 37.0844 68.3886C37.2375 68.752 38.9896 70.6021 40.0357 71.4941C42.4257 73.5508 46.6017 75.6735 49.587 76.3507L50.2419 76.5077V78.8534C50.2419 80.8522 50.2589 81.2404 50.378 81.4799C50.6416 82.0168 50.6161 82.0168 54.537 81.992L58.0666 81.9672L58.3388 81.6947L58.6194 81.4304L58.645 79.0103L58.6705 76.5985L59.5805 76.4086C63.1187 75.6652 66.5037 73.8398 68.5704 71.5685C69.7442 70.28 70.8753 68.372 71.3686 66.8523C72.3637 63.8045 72.1681 60.0712 70.8838 57.6016C69.9058 55.6936 68.6725 54.3886 66.5717 53.0258C64.4965 51.6795 62.2001 50.7131 56.7653 48.9208C54.0182 48.0123 52.972 47.5828 52.13 47.0376C51.4666 46.6164 51.1009 46.2447 50.8202 45.7244C50.6586 45.4353 50.6246 45.2453 50.6246 44.5928C50.6246 43.8742 50.6501 43.7669 50.8798 43.3621C51.4836 42.3049 52.8019 41.735 54.8942 41.6442C55.9914 41.5946 56.5867 41.6607 57.5563 41.9663C58.8916 42.3793 60.4651 43.2878 61.8939 44.4607C63.1016 45.4601 63.3058 45.584 63.7735 45.584C63.9947 45.584 64.2839 45.5427 64.4029 45.4849C64.7006 45.3527 69.7612 40.1161 70.0418 39.6536C70.4926 38.8937 70.2545 38.2495 69.0978 37.184C68.3493 36.4985 67.5328 35.8955 66.189 35.0448C64.1393 33.748 61.8174 32.856 58.9001 32.2531L58.662 32.2035V30.0643C58.662 27.9911 58.6535 27.9251 58.4748 27.6608C58.3643 27.5038 58.1091 27.2973 57.905 27.19C57.5308 27 57.5138 27 54.3754 27C51.5432 27 51.1945 27.0165 50.9308 27.1487Z" fill="url(#paint1_linear_840_184)"/>
<defs>
<linearGradient id="paint0_linear_840_184" x1="-12.2064" y1="-28.0729" x2="131.945" y2="-24.2717" gradientUnits="userSpaceOnUse">
<stop stop-color="#4AA1FF"/>
<stop offset="0.4375" stop-color="#B5D9D7"/>
<stop offset="1" stop-color="#4AA1FF"/>
</linearGradient>
<linearGradient id="paint1_linear_840_184" x1="33.1161" y1="96.0365" x2="79.0016" y2="95.2665" gradientUnits="userSpaceOnUse">
<stop stop-color="#4AA1FF"/>
<stop offset="0.4375" stop-color="#B5D9D7"/>
<stop offset="1" stop-color="#4AA1FF"/>
</linearGradient>
</defs>
</svg>
