<svg width="110" height="110" viewBox="0 0 110 110" fill="none" xmlns="http://www.w3.org/2000/svg">
<rect x="1" y="1" width="108" height="108" rx="33" fill="white" fill-opacity="0.1" stroke="url(#paint0_linear_840_182)" stroke-width="2"/>
<path d="M53.1816 27.0039C52.7059 28.5894 53.4458 29.6992 55.0313 29.6992C56.8281 29.6992 57.3566 29.0122 56.9338 27.2682C56.6696 26.3169 56.2468 25.9998 55.0313 25.9998C54.0271 25.9998 53.3929 26.3169 53.1816 27.0039Z" fill="url(#paint1_linear_840_182)"/>
<path d="M46.8424 28.3255C42.6673 29.6467 38.8622 32.0249 35.4271 35.4601C31.0935 39.7937 27.1298 47.1396 29.0852 47.1396C29.4023 47.1396 30.3536 45.607 31.252 43.7045C34.3701 37.1512 40.9762 31.5493 47.7937 29.6996C49.5377 29.2239 51.1232 28.5369 51.2289 28.2198C51.4931 27.4271 49.5377 27.4799 46.8424 28.3255Z" fill="url(#paint2_linear_840_182)"/>
<path d="M62.9609 29.1188C62.9609 29.3302 64.4936 30.3344 66.3961 31.2328C73.1608 34.5623 79.1855 41.8554 80.5067 48.3029C80.9295 50.3112 81.4052 51.3682 81.8808 51.3682C83.0435 51.3682 82.2507 47.7216 80.1368 43.0709C77.8643 38.156 72.6323 32.7126 67.8759 30.2815C64.5464 28.6432 62.9609 28.2204 62.9609 29.1188Z" fill="url(#paint3_linear_840_182)"/>
<path d="M47.5817 35.7243C44.5165 36.9399 41.9797 38.5782 40.8171 39.9522C40.2357 40.6393 40.4471 40.8507 41.9797 41.4848C45.6792 43.0703 45.6792 43.0703 46.9475 40.375C47.5817 39.001 48.7444 37.2041 49.5371 36.4114C50.277 35.5658 50.8055 34.8259 50.6998 34.7202C50.5941 34.6145 49.1672 35.0373 47.5817 35.7243Z" fill="url(#paint4_linear_840_182)"/>
<path d="M59.2617 34.7731C59.2617 34.9316 59.8431 35.6715 60.5829 36.4642C61.3228 37.2569 62.4855 39.001 63.1197 40.375C64.388 43.0703 64.388 43.0703 68.1403 41.4848C69.9372 40.745 69.9372 40.745 68.9859 39.6351C67.2947 37.7854 59.2617 33.7689 59.2617 34.7731Z" fill="url(#paint5_linear_840_182)"/>
<path d="M52.3383 35.7772C50.8585 36.57 47.6348 41.1678 47.6348 42.489C47.6348 43.8102 54.3466 44.3916 60.0014 43.6517C62.3267 43.3346 62.4853 43.1761 62.1682 42.0134C61.6925 39.9523 59.2086 36.57 57.6232 35.7244C55.7735 34.7731 54.1352 34.826 52.3383 35.7772Z" fill="url(#paint6_linear_840_182)"/>
<path d="M37.2757 44.233C35.6902 46.9811 34.4219 50.839 34.4219 53.0587V54.5913L39.0197 54.4328L43.6176 54.2742L44.2517 50.3106C44.5688 48.1438 44.9388 45.8713 45.0445 45.3428C45.203 44.4972 44.6217 44.0744 42.0849 43.0703C40.3938 42.3832 38.914 41.8548 38.8083 41.8548C38.7555 41.8548 38.0684 42.9117 37.2757 44.233Z" fill="url(#paint7_linear_840_182)"/>
<path d="M67.8756 43.0174C64.7046 44.233 64.7575 44.0216 65.8145 50.3106L66.4487 54.2742L71.0993 54.4328L75.8029 54.5913L75.4858 51.7903C75.1687 48.9893 72.1563 42.2775 71.1522 42.0662C70.888 42.0133 69.3553 42.4361 67.8756 43.0174Z" fill="url(#paint8_linear_840_182)"/>
<path d="M46.1028 47.4568C45.7857 49.148 45.5215 51.4205 45.5215 52.5303V54.5386H55.0343H64.547V52.5303C64.547 51.4205 64.2828 49.148 63.9657 47.4568L63.3315 44.4973L61.429 44.8672C58.9979 45.3429 51.0706 45.3429 48.6396 44.8672L46.737 44.4973L46.1028 47.4568Z" fill="url(#paint9_linear_840_182)"/>
<path d="M26.3365 53.3231C25.7023 53.9572 25.9666 55.9655 26.7593 56.6525C27.6577 57.3924 29.4546 56.9168 29.8774 55.8069C30.5644 53.9572 27.7106 51.949 26.3365 53.3231Z" fill="url(#paint10_linear_840_182)"/>
<path d="M80.4545 53.957C79.7146 55.2782 80.1902 56.4937 81.5114 56.9165C82.9384 57.3921 84.2067 56.2295 83.9953 54.5912C83.7839 52.7943 81.3001 52.3187 80.4545 53.957Z" fill="url(#paint11_linear_840_182)"/>
<path d="M34.5808 58.2903C34.8979 60.8799 36.6947 65.4777 38.1745 67.3274C38.8615 68.2258 39.0729 68.2258 42.0853 66.9575C43.9878 66.2176 45.2034 65.372 45.0977 65.0021C44.992 64.6321 44.622 62.3596 44.3049 59.9286L43.7236 55.595H38.9672H34.2637L34.5808 58.2903Z" fill="url(#paint12_linear_840_182)"/>
<path d="M45.6784 59.1363C45.837 61.1445 46.2069 63.3113 46.4712 64.1041L46.9996 65.4253L51.0161 64.8968C53.6057 64.5797 56.4596 64.5797 59.0492 64.8968L63.0657 65.4253L63.5942 64.1041C63.8584 63.3113 64.2283 61.1445 64.3869 59.1363L64.704 55.5954H55.0327H45.3613L45.6784 59.1363Z" fill="url(#paint13_linear_840_182)"/>
<path d="M65.762 59.9286C65.4449 62.3596 65.075 64.6321 64.9693 65.0021C64.8636 65.372 66.0791 66.2176 67.9817 66.9575C70.994 68.2258 71.2054 68.2258 71.8925 67.3274C73.3722 65.4777 75.1691 60.8799 75.4862 58.2903L75.8033 55.595H71.0997H66.3433L65.762 59.9286Z" fill="url(#paint14_linear_840_182)"/>
<path d="M27.5508 59.8232C27.5508 61.5144 29.929 67.5391 31.7258 70.3401C32.6771 71.8199 34.7382 74.1981 36.3237 75.625C39.019 78.1089 44.8323 81.4912 46.4178 81.4912C48.0561 81.4912 46.8406 80.3814 43.564 78.7959C36.7993 75.5721 30.4046 67.592 29.3476 60.9859C28.9777 58.7134 27.5508 57.7621 27.5508 59.8232Z" fill="url(#paint15_linear_840_182)"/>
<path d="M78.7641 66.535C75.5931 73.2468 68.6171 78.8488 61.5354 80.5399C59.9499 80.9099 58.7344 81.4912 58.7344 81.8612C58.7344 82.8124 59.6328 82.7067 63.5965 81.4912C70.3611 79.4301 76.6501 74.0395 79.821 67.6448C81.5122 64.3154 81.8293 62.9942 80.9837 62.9942C80.6666 62.9942 79.7153 64.5796 78.7641 66.535Z" fill="url(#paint16_linear_840_182)"/>
<path d="M49.1145 66.5347C48.269 66.6404 47.6348 67.0103 47.6348 67.2746C47.6348 68.4901 49.8544 71.9253 51.5984 73.4579C54.1352 75.7304 56.0377 75.6775 58.6273 73.2994C60.6884 71.4496 62.9081 67.486 62.221 66.8518C61.7982 66.429 51.1756 66.1648 49.1145 66.5347Z" fill="url(#paint17_linear_840_182)"/>
<path d="M44.4626 67.592C44.0398 67.7506 42.8772 68.2262 41.873 68.5962L40.0762 69.3361L41.2917 70.6573C42.7186 72.1899 48.3734 75.1494 49.8532 75.1494C50.7516 75.1494 50.5931 74.8323 49.0076 72.9826C48.0035 71.7671 46.8937 69.9702 46.5766 69.019C45.9424 67.1693 45.8367 67.1164 44.4626 67.592Z" fill="url(#paint18_linear_840_182)"/>
<path d="M63.5422 68.9661C63.1723 69.9702 62.0624 71.7671 61.0583 72.9826C59.5257 74.7266 59.3671 75.1494 60.1599 75.1494C61.6396 75.1494 66.1846 72.8241 68.2457 71.0272L70.0954 69.4417L68.2457 68.649C64.3349 67.0107 64.1764 67.0107 63.5422 68.9661Z" fill="url(#paint19_linear_840_182)"/>
<path d="M53.7667 80.5933C52.6569 81.4388 52.8154 82.9715 54.1367 83.817C56.0921 85.0326 58.206 81.9673 56.3035 80.5933C55.775 80.2233 55.1936 79.9062 55.0351 79.9062C54.8765 79.9062 54.2952 80.2233 53.7667 80.5933Z" fill="url(#paint20_linear_840_182)"/>
<defs>
<linearGradient id="paint0_linear_840_182" x1="-12.2064" y1="-28.0729" x2="131.945" y2="-24.2717" gradientUnits="userSpaceOnUse">
<stop stop-color="#4AA1FF"/>
<stop offset="0.4375" stop-color="#B5D9D7"/>
<stop offset="1" stop-color="#4AA1FF"/>
</linearGradient>
<linearGradient id="paint1_linear_840_182" x1="52.5916" y1="30.6433" x2="57.8752" y2="30.4915" gradientUnits="userSpaceOnUse">
<stop stop-color="#4AA1FF"/>
<stop offset="0.4375" stop-color="#B5D9D7"/>
<stop offset="1" stop-color="#4AA1FF"/>
</linearGradient>
<linearGradient id="paint2_linear_840_182" x1="26.0555" y1="52.1118" x2="55.7703" y2="51.1996" gradientUnits="userSpaceOnUse">
<stop stop-color="#4AA1FF"/>
<stop offset="0.4375" stop-color="#B5D9D7"/>
<stop offset="1" stop-color="#4AA1FF"/>
</linearGradient>
<linearGradient id="paint3_linear_840_182" x1="60.8019" y1="57.1644" x2="86.3036" y2="56.5883" gradientUnits="userSpaceOnUse">
<stop stop-color="#4AA1FF"/>
<stop offset="0.4375" stop-color="#B5D9D7"/>
<stop offset="1" stop-color="#4AA1FF"/>
</linearGradient>
<linearGradient id="paint4_linear_840_182" x1="39.3884" y1="44.568" x2="52.7406" y2="44.1113" gradientUnits="userSpaceOnUse">
<stop stop-color="#4AA1FF"/>
<stop offset="0.4375" stop-color="#B5D9D7"/>
<stop offset="1" stop-color="#4AA1FF"/>
</linearGradient>
<linearGradient id="paint5_linear_840_182" x1="58.1125" y1="44.5909" x2="71.6781" y2="44.1248" gradientUnits="userSpaceOnUse">
<stop stop-color="#4AA1FF"/>
<stop offset="0.4375" stop-color="#B5D9D7"/>
<stop offset="1" stop-color="#4AA1FF"/>
</linearGradient>
<linearGradient id="paint6_linear_840_182" x1="46.0084" y1="46.2581" x2="65.1925" y2="45.4287" gradientUnits="userSpaceOnUse">
<stop stop-color="#4AA1FF"/>
<stop offset="0.4375" stop-color="#B5D9D7"/>
<stop offset="1" stop-color="#4AA1FF"/>
</linearGradient>
<linearGradient id="paint7_linear_840_182" x1="33.2404" y1="57.8418" x2="47.1956" y2="57.5342" gradientUnits="userSpaceOnUse">
<stop stop-color="#4AA1FF"/>
<stop offset="0.4375" stop-color="#B5D9D7"/>
<stop offset="1" stop-color="#4AA1FF"/>
</linearGradient>
<linearGradient id="paint8_linear_840_182" x1="63.9857" y1="57.789" x2="77.9277" y2="57.4769" gradientUnits="userSpaceOnUse">
<stop stop-color="#4AA1FF"/>
<stop offset="0.4375" stop-color="#B5D9D7"/>
<stop offset="1" stop-color="#4AA1FF"/>
</linearGradient>
<linearGradient id="paint9_linear_840_182" x1="43.4103" y1="57.1012" x2="68.2979" y2="55.8577" gradientUnits="userSpaceOnUse">
<stop stop-color="#4AA1FF"/>
<stop offset="0.4375" stop-color="#B5D9D7"/>
<stop offset="1" stop-color="#4AA1FF"/>
</linearGradient>
<linearGradient id="paint10_linear_840_182" x1="25.5385" y1="58.0654" x2="30.7808" y2="57.9318" gradientUnits="userSpaceOnUse">
<stop stop-color="#4AA1FF"/>
<stop offset="0.4375" stop-color="#B5D9D7"/>
<stop offset="1" stop-color="#4AA1FF"/>
</linearGradient>
<linearGradient id="paint11_linear_840_182" x1="79.6713" y1="58.0629" x2="84.7994" y2="57.933" gradientUnits="userSpaceOnUse">
<stop stop-color="#4AA1FF"/>
<stop offset="0.4375" stop-color="#B5D9D7"/>
<stop offset="1" stop-color="#4AA1FF"/>
</linearGradient>
<linearGradient id="paint12_linear_840_182" x1="33.0607" y1="71.1168" x2="47.269" y2="70.7884" gradientUnits="userSpaceOnUse">
<stop stop-color="#4AA1FF"/>
<stop offset="0.4375" stop-color="#B5D9D7"/>
<stop offset="1" stop-color="#4AA1FF"/>
</linearGradient>
<linearGradient id="paint13_linear_840_182" x1="43.2149" y1="67.934" x2="68.5124" y2="66.6213" gradientUnits="userSpaceOnUse">
<stop stop-color="#4AA1FF"/>
<stop offset="0.4375" stop-color="#B5D9D7"/>
<stop offset="1" stop-color="#4AA1FF"/>
</linearGradient>
<linearGradient id="paint14_linear_840_182" x1="63.76" y1="71.1168" x2="77.9683" y2="70.7884" gradientUnits="userSpaceOnUse">
<stop stop-color="#4AA1FF"/>
<stop offset="0.4375" stop-color="#B5D9D7"/>
<stop offset="1" stop-color="#4AA1FF"/>
</linearGradient>
<linearGradient id="paint15_linear_840_182" x1="25.3767" y1="87.3114" x2="51.0566" y2="86.7296" gradientUnits="userSpaceOnUse">
<stop stop-color="#4AA1FF"/>
<stop offset="0.4375" stop-color="#B5D9D7"/>
<stop offset="1" stop-color="#4AA1FF"/>
</linearGradient>
<linearGradient id="paint16_linear_840_182" x1="56.2153" y1="87.4762" x2="85.9568" y2="86.5634" gradientUnits="userSpaceOnUse">
<stop stop-color="#4AA1FF"/>
<stop offset="0.4375" stop-color="#B5D9D7"/>
<stop offset="1" stop-color="#4AA1FF"/>
</linearGradient>
<linearGradient id="paint17_linear_840_182" x1="46.002" y1="77.3604" x2="65.2595" y2="76.508" gradientUnits="userSpaceOnUse">
<stop stop-color="#4AA1FF"/>
<stop offset="0.4375" stop-color="#B5D9D7"/>
<stop offset="1" stop-color="#4AA1FF"/>
</linearGradient>
<linearGradient id="paint18_linear_840_182" x1="38.9305" y1="77.1426" x2="52.453" y2="76.6713" gradientUnits="userSpaceOnUse">
<stop stop-color="#4AA1FF"/>
<stop offset="0.4375" stop-color="#B5D9D7"/>
<stop offset="1" stop-color="#4AA1FF"/>
</linearGradient>
<linearGradient id="paint19_linear_840_182" x1="58.5369" y1="77.1125" x2="72.1632" y2="76.6265" gradientUnits="userSpaceOnUse">
<stop stop-color="#4AA1FF"/>
<stop offset="0.4375" stop-color="#B5D9D7"/>
<stop offset="1" stop-color="#4AA1FF"/>
</linearGradient>
<linearGradient id="paint20_linear_840_182" x1="52.5833" y1="85.1655" x2="57.8509" y2="85.0323" gradientUnits="userSpaceOnUse">
<stop stop-color="#4AA1FF"/>
<stop offset="0.4375" stop-color="#B5D9D7"/>
<stop offset="1" stop-color="#4AA1FF"/>
</linearGradient>
</defs>
</svg>
