<svg width="110" height="110" viewBox="0 0 110 110" fill="none" xmlns="http://www.w3.org/2000/svg">
<rect x="1" y="1" width="108" height="108" rx="33" fill="white" fill-opacity="0.1" stroke="url(#paint0_linear_840_170)" stroke-width="2"/>
<path d="M45.3034 26.0924C45.2034 26.1288 45.0124 26.2833 44.8851 26.4197C44.4487 26.9016 44.3941 27.1926 44.4032 28.8656C44.4032 30.2295 44.4396 30.5114 44.6396 31.2752C45.0124 32.6391 45.7307 34.0848 46.74 35.4759L47.1856 36.0942H55.0325H62.8884L63.5704 35.0668C64.4342 33.7756 65.107 32.3572 65.4162 31.2115C65.6253 30.4296 65.6526 30.1386 65.6617 28.8202C65.6708 27.3926 65.6617 27.3017 65.4435 26.8653C65.3162 26.6107 65.0798 26.3197 64.8979 26.2015C64.616 26.0106 64.5069 25.9924 63.9432 26.0287C63.3067 26.0742 62.9703 26.1833 60.0516 27.2653C57.7057 28.1382 56.1781 28.4292 54.4869 28.3292C52.8775 28.2382 51.7318 27.9382 48.9859 26.8925C46.8037 26.056 45.8671 25.856 45.3034 26.0924Z" fill="url(#paint1_linear_840_170)"/>
<path d="M46.5011 38.022C44.8826 38.1766 43.8006 39.7132 44.2007 41.2772C44.428 42.141 44.9008 42.7229 45.701 43.1139L46.1192 43.323H55.0299H63.9407L64.4044 43.0775C64.8954 42.8229 65.4137 42.2955 65.6865 41.8045C65.8047 41.5772 65.8501 41.2954 65.8501 40.6861C65.8501 39.7223 65.7046 39.3586 65.0954 38.7494C64.3498 37.9947 65.0682 38.0584 55.5755 38.0038C50.9292 37.9766 46.8466 37.9857 46.5011 38.022Z" fill="url(#paint2_linear_840_170)"/>
<path d="M43.4419 46.7055C36.6862 56.3346 32.9127 63.5086 32.1217 68.2731C31.9307 69.4006 31.9671 71.3919 32.2126 72.6921C32.8945 76.4565 35.3677 79.7389 39.714 82.6667C40.8233 83.4123 41.5598 83.7851 42.2054 83.9215C42.5236 83.9851 46.7153 84.0124 55.3078 83.9942L67.9465 83.9669L68.492 83.7487C68.783 83.6305 69.5286 83.1941 70.1378 82.7849C74.8477 79.6116 77.13 76.5747 77.8665 72.5103C78.112 71.1464 78.0938 68.9005 77.821 67.6549C77.0845 64.2179 74.8477 59.4715 71.2743 53.7341C69.6195 51.07 67.2827 47.6057 65.6551 45.3962L65.1732 44.7506L64.7004 44.9416C64.2822 45.1052 63.9912 45.1416 62.3818 45.1689C61.3634 45.1871 60.536 45.2234 60.536 45.2507C60.536 45.278 60.6178 45.4144 60.727 45.5599C61.2361 46.2782 61.718 47.733 61.718 48.5786C61.718 48.9423 61.6726 49.0605 61.4544 49.2878C61.1634 49.5697 60.8088 49.6334 60.4178 49.4515C60.1177 49.3151 60.0086 49.106 59.845 48.3058C59.6449 47.2966 59.2358 46.5237 58.5356 45.7963L57.9355 45.1871H55.0623H52.189L51.889 45.4326C51.0161 46.1691 50.3432 47.3057 50.1796 48.3422C50.0795 48.9878 49.9795 49.2151 49.6976 49.406C49.3703 49.6334 48.943 49.5879 48.6065 49.2878C48.3338 49.0423 48.3065 48.9787 48.3156 48.5331C48.3338 47.6966 48.7611 46.4691 49.3521 45.5053L49.5522 45.1871H47.87C46.2152 45.1871 45.7969 45.1325 44.9786 44.787C44.8695 44.7415 44.5058 45.1962 43.4419 46.7055ZM57.4445 52.3157C59.7904 52.8521 61.5726 53.8069 63.2547 55.4162C64.6913 56.7983 65.646 58.2986 66.2371 60.108C67.3464 63.4814 66.8372 67.1002 64.8368 70.128C64.2731 70.9827 62.5818 72.6649 61.718 73.2377C59.6086 74.638 57.5991 75.2381 54.9895 75.2381C53.2347 75.2381 52.1708 75.038 50.6706 74.4561C46.8971 72.9922 44.0784 69.5734 43.3965 65.6545C43.2146 64.6543 43.2237 62.6994 43.3965 61.681C44.233 56.9165 48.0792 53.1431 53.0346 52.2338C53.953 52.0702 56.5716 52.1156 57.4445 52.3157Z" fill="url(#paint3_linear_840_170)"/>
<path d="M54.422 54.5431C54.1402 54.7977 54.122 54.8431 54.0947 55.5433C54.0583 56.1706 54.0311 56.2798 53.8947 56.2798C53.5492 56.2798 52.4671 56.9253 51.9671 57.4254C50.294 59.0985 50.3213 61.7262 52.0398 63.372C52.8308 64.1358 53.5037 64.4358 54.7767 64.5904C55.8587 64.7268 56.3224 64.9086 56.7861 65.3814C57.1771 65.7815 57.3771 66.2361 57.4226 66.8544C57.4953 67.7728 57.0498 68.5729 56.1769 69.0821C55.8132 69.2912 55.6586 69.3276 55.0313 69.3276C54.1584 69.3276 53.7401 69.1367 53.1764 68.5002C52.7945 68.0637 52.6672 67.7546 52.5763 66.9908C52.4762 66.1907 51.6033 65.8088 51.0487 66.318C50.7305 66.618 50.6668 66.9363 50.7759 67.6182C51.0396 69.1549 52.2853 70.6279 53.6492 71.0007L54.0583 71.1189L54.0947 71.8281C54.122 72.4282 54.1584 72.5737 54.3402 72.7737C54.613 73.0647 55.0676 73.1556 55.4131 72.9919C55.7768 72.8192 55.986 72.3464 55.986 71.6644C55.986 71.2643 56.0223 71.1007 56.1042 71.1007C56.1678 71.1007 56.5133 70.9552 56.8861 70.7824C58.5683 69.9732 59.5594 68.1365 59.2593 66.3453C58.9047 64.2812 57.0498 62.7355 54.904 62.7355C54.0947 62.7355 53.14 62.099 52.7945 61.3261C52.5853 60.8806 52.5672 59.9441 52.749 59.5076C53.2764 58.2438 54.813 57.6436 56.0314 58.2256C56.8498 58.6166 57.4317 59.4622 57.4408 60.2623C57.4408 61.0352 58.2955 61.5444 58.8865 61.1352C59.2502 60.8715 59.3684 60.4533 59.2593 59.7531C59.0138 58.2074 57.7954 56.7617 56.4042 56.3707C56.1769 56.307 55.986 56.207 55.9769 56.1525C55.9769 56.0979 55.9769 55.8797 55.986 55.6615C56.0314 54.5067 55.1585 53.8793 54.422 54.5431Z" fill="url(#paint4_linear_840_170)"/>
<defs>
<linearGradient id="paint0_linear_840_170" x1="-12.2064" y1="-28.0729" x2="131.945" y2="-24.2717" gradientUnits="userSpaceOnUse">
<stop stop-color="#4AA1FF"/>
<stop offset="0.4375" stop-color="#B5D9D7"/>
<stop offset="1" stop-color="#4AA1FF"/>
</linearGradient>
<linearGradient id="paint1_linear_840_170" x1="42.043" y1="38.6704" x2="69.8393" y2="37.1265" gradientUnits="userSpaceOnUse">
<stop stop-color="#4AA1FF"/>
<stop offset="0.4375" stop-color="#B5D9D7"/>
<stop offset="1" stop-color="#4AA1FF"/>
</linearGradient>
<linearGradient id="paint2_linear_840_170" x1="41.7055" y1="44.6845" x2="69.8806" y2="41.6579" gradientUnits="userSpaceOnUse">
<stop stop-color="#4AA1FF"/>
<stop offset="0.4375" stop-color="#B5D9D7"/>
<stop offset="1" stop-color="#4AA1FF"/>
</linearGradient>
<linearGradient id="paint3_linear_840_170" x1="26.8912" y1="94.0165" x2="87.208" y2="92.1508" gradientUnits="userSpaceOnUse">
<stop stop-color="#4AA1FF"/>
<stop offset="0.4375" stop-color="#B5D9D7"/>
<stop offset="1" stop-color="#4AA1FF"/>
</linearGradient>
<linearGradient id="paint4_linear_840_170" x1="49.7738" y1="77.8708" x2="61.0317" y2="77.7352" gradientUnits="userSpaceOnUse">
<stop stop-color="#4AA1FF"/>
<stop offset="0.4375" stop-color="#B5D9D7"/>
<stop offset="1" stop-color="#4AA1FF"/>
</linearGradient>
</defs>
</svg>
