<svg width="32" height="32" viewBox="0 0 32 32" fill="none" xmlns="http://www.w3.org/2000/svg">
<g clip-path="url(#clip0_923_172)">
<path d="M20 10.6665C17.7333 10.6665 16 12.3998 16 14.6665C16 16.9332 17.7333 18.6665 20 18.6665C22.2667 18.6665 24 16.9332 24 14.6665C24 12.3998 22.2667 10.6665 20 10.6665ZM20 17.3332C18.5333 17.3332 17.3333 16.1332 17.3333 14.6665C17.3333 13.1998 18.5333 11.9998 20 11.9998C21.4667 11.9998 22.6667 13.1998 22.6667 14.6665C22.6667 16.1332 21.4667 17.3332 20 17.3332Z" fill="black"/>
<path d="M9.33203 5.3335H13.332V6.66683H9.33203V5.3335Z" fill="black"/>
<path d="M4 5.3335H6.66667V6.66683H4V5.3335Z" fill="black"/>
<path d="M4 9.3335H10.6667V10.6668H4V9.3335Z" fill="black"/>
<path d="M4 13.3335H9.33333V14.6668H4V13.3335Z" fill="black"/>
<path d="M29.3333 0H2.66667C1.2 0 0 1.2 0 2.66667V24C0 25.4667 1.2 26.6667 2.66667 26.6667H12V25.3333H2.66667C1.86667 25.3333 1.33333 24.8 1.33333 24V2.66667C1.33333 1.86667 1.86667 1.33333 2.66667 1.33333H29.3333C30.1333 1.33333 30.6667 1.86667 30.6667 2.66667V24C30.6667 24.8 30.1333 25.3333 29.3333 25.3333H28V26.6667H29.3333C30.8 26.6667 32 25.4667 32 24V2.66667C32 1.2 30.8 0 29.3333 0Z" fill="black"/>
<path d="M20 6.6665C15.6 6.6665 12 10.2665 12 14.6665C12 17.0665 13.0667 19.1998 14.6667 20.6665V31.9998L20 29.3332L25.3333 31.9998V20.6665C26.9333 19.1998 28 17.0665 28 14.6665C28 10.2665 24.4 6.6665 20 6.6665ZM24 29.8665L20 27.8665L16 29.8665V26.6665V21.5998C17.2 22.2665 18.5333 22.6665 20 22.6665C21.4667 22.6665 22.8 22.2665 24 21.5998V29.8665ZM20 21.3332C16.2667 21.3332 13.3333 18.3998 13.3333 14.6665C13.3333 10.9332 16.2667 7.99984 20 7.99984C23.7333 7.99984 26.6667 10.9332 26.6667 14.6665C26.6667 18.3998 23.7333 21.3332 20 21.3332Z" fill="black"/>
</g>
<defs>
<clipPath id="clip0_923_172">
<rect width="32" height="32" fill="white"/>
</clipPath>
</defs>
</svg>
