<svg width="31" height="37" viewBox="0 0 31 37" fill="none" xmlns="http://www.w3.org/2000/svg">
<path d="M30.3683 18.5001H24.6663V9.30698C24.6663 4.65055 20.9516 0.90918 16.2962 0.90918H14.8876C10.2322 0.90918 6.37179 4.65055 6.37179 9.30698V18.5001H0.815536C0.426956 18.5001 0.0390625 18.7679 0.0390625 19.1564V35.3401C0.0390625 35.7287 0.426956 36.091 0.815536 36.091H30.3683C30.7568 36.091 30.9991 35.7287 30.9991 35.3401V19.1564C30.9991 18.7679 30.7568 18.5001 30.3683 18.5001ZM7.77906 9.30698C7.77906 5.42633 11.008 2.31645 14.8876 2.31645H16.2962C20.1758 2.31645 23.2591 5.42633 23.2591 9.30698V18.5001H7.77906V9.30698ZM29.5918 34.6837H1.44634V19.9074H7.14826H24.0355H29.5918V34.6837Z" fill="black"/>
</svg>
