<svg width="36" height="38" viewBox="0 0 36 38" fill="none" xmlns="http://www.w3.org/2000/svg">
<path d="M31.9813 21.8756C31.0249 21.8756 30.1686 22.3122 29.601 22.9963L26.0355 20.999C26.252 20.5224 26.416 20.0148 26.5163 19.4815C26.573 19.1793 26.3741 18.8884 26.072 18.8316C25.7701 18.7751 25.4789 18.9736 25.4221 19.2758C24.9315 21.8867 22.6447 23.7816 19.9847 23.7816C16.9331 23.7816 14.4504 21.2989 14.4504 18.2473C14.4504 15.1957 16.9331 12.713 19.9847 12.713C22.5359 12.713 24.7449 14.4407 25.3564 16.9145C25.4304 17.213 25.7324 17.3951 26.0304 17.3213C26.3289 17.2476 26.5111 16.9457 26.4372 16.6474C26.0692 15.1591 25.2202 13.8957 24.0793 13.0051L27.9606 7.07237C28.4295 7.28739 28.9502 7.40829 29.4989 7.40829C31.5414 7.40829 33.2031 5.74659 33.2031 3.70415C33.2031 1.6617 31.5414 0 29.4988 0C27.4563 0 25.7947 1.6617 25.7947 3.70415C25.7947 4.79866 26.2722 5.7834 27.0294 6.46207L23.1471 12.3965C22.2006 11.8857 21.121 11.5997 19.9846 11.5997C18.3067 11.5997 16.7722 12.2248 15.6012 13.2541L10.7712 8.60374C11.3389 7.8444 11.6669 6.90775 11.6669 5.91566C11.6669 3.43992 9.6527 1.42568 7.17689 1.42568C4.70115 1.42568 2.68691 3.43992 2.68691 5.91566C2.68691 7.82147 3.89542 9.52473 5.69428 10.1539C5.98463 10.2556 6.30199 10.1025 6.40352 9.81226C6.50505 9.52206 6.35216 9.20455 6.06189 9.10302C4.70909 8.6298 3.8002 7.34884 3.8002 5.91559C3.8002 4.05365 5.31495 2.5389 7.17689 2.5389C9.03883 2.5389 10.5537 4.05365 10.5537 5.91559C10.5537 7.34892 9.64476 8.6298 8.29189 9.10302C8.00176 9.20448 7.84872 9.52206 7.95026 9.81226C8.05201 10.1031 8.37019 10.2552 8.6595 10.1539C9.15551 9.98037 9.60639 9.72483 9.99968 9.40628L14.8288 14.0558C13.8966 15.2003 13.3369 16.6595 13.3369 18.2472C13.3369 18.4639 13.3476 18.6781 13.368 18.8895L6.914 20.0679C6.47114 18.9012 5.34218 18.0695 4.02204 18.0695C2.31685 18.0695 0.929688 19.4566 0.929688 21.1618C0.929688 22.867 2.31685 24.2542 4.02204 24.2542C5.72679 24.2542 7.1138 22.8676 7.11447 21.163L13.5677 19.9847C14.0086 21.6111 15.0525 22.9918 16.4438 23.8709L13.6136 29.3334C13.1313 29.155 12.6103 29.0573 12.0668 29.0573C9.60127 29.0573 7.59549 31.0631 7.59549 33.5286C7.59549 35.9941 9.60127 37.9999 12.0668 37.9999C14.5323 37.9999 16.5381 35.9941 16.5381 33.5286C16.5381 32.0034 15.7701 30.6549 14.601 29.8475L17.4314 24.3847C18.2179 24.7131 19.0804 24.8948 19.9845 24.8948C22.2479 24.8948 24.2853 23.7514 25.4913 21.9701L29.056 23.967C28.9482 24.2811 28.8888 24.6176 28.8888 24.9678C28.8888 26.673 30.276 28.0602 31.9812 28.0602C33.6864 28.0602 35.0735 26.673 35.0735 24.9678C35.0735 23.2626 33.6865 21.8756 31.9813 21.8756ZM26.908 3.70415C26.908 2.27557 28.0703 1.11329 29.4988 1.11329C30.9274 1.11329 32.0897 2.27557 32.0897 3.70415C32.0897 5.13272 30.9274 6.295 29.4988 6.295C28.0703 6.295 26.908 5.13272 26.908 3.70415ZM4.02226 23.141C2.93102 23.141 2.0432 22.2532 2.0432 21.162C2.0432 20.0707 2.93102 19.1829 4.02226 19.1829C5.11359 19.1829 6.0014 20.0707 6.0014 21.162C6.0014 22.2532 5.11359 23.141 4.02226 23.141ZM15.4249 33.5287C15.4249 35.3803 13.9185 36.8867 12.0669 36.8867C10.2153 36.8867 8.70885 35.3803 8.70885 33.5287C8.70885 31.6772 10.2153 30.1707 12.0669 30.1707C13.9185 30.1707 15.4249 31.6772 15.4249 33.5287ZM31.9813 26.947C30.8901 26.947 30.0023 26.0592 30.0023 24.968C30.0023 23.8767 30.8901 22.9889 31.9813 22.9889C33.0726 22.9889 33.9604 23.8767 33.9604 24.968C33.9604 26.0592 33.0726 26.947 31.9813 26.947Z" fill="black"/>
</svg>
