<svg width="33" height="33" viewBox="0 0 33 33" fill="none" xmlns="http://www.w3.org/2000/svg">
<path d="M30.9375 7.21875C30.9375 7.49225 30.8289 7.75456 30.6355 7.94795C30.4421 8.14135 30.1798 8.25 29.9062 8.25H3.09375C2.82025 8.25 2.55794 8.14135 2.36455 7.94795C2.17115 7.75456 2.0625 7.49225 2.0625 7.21875C2.0625 6.94525 2.17115 6.68294 2.36455 6.48955C2.55794 6.29615 2.82025 6.1875 3.09375 6.1875H29.9062C30.1798 6.1875 30.4421 6.29615 30.6355 6.48955C30.8289 6.68294 30.9375 6.94525 30.9375 7.21875ZM25.7812 15.4688H3.09375C2.82025 15.4688 2.55794 15.5774 2.36455 15.7708C2.17115 15.9642 2.0625 16.2265 2.0625 16.5C2.0625 16.7735 2.17115 17.0358 2.36455 17.2292C2.55794 17.4226 2.82025 17.5312 3.09375 17.5312H25.7812C26.0548 17.5312 26.3171 17.4226 26.5105 17.2292C26.7039 17.0358 26.8125 16.7735 26.8125 16.5C26.8125 16.2265 26.7039 15.9642 26.5105 15.7708C26.3171 15.5774 26.0548 15.4688 25.7812 15.4688ZM16.5 24.75H3.09375C2.82025 24.75 2.55794 24.8586 2.36455 25.052C2.17115 25.2454 2.0625 25.5077 2.0625 25.7812C2.0625 26.0548 2.17115 26.3171 2.36455 26.5105C2.55794 26.7039 2.82025 26.8125 3.09375 26.8125H16.5C16.7735 26.8125 17.0358 26.7039 17.2292 26.5105C17.4226 26.3171 17.5312 26.0548 17.5312 25.7812C17.5312 25.5077 17.4226 25.2454 17.2292 25.052C17.0358 24.8586 16.7735 24.75 16.5 24.75Z" fill="url(#paint0_linear_770_987)"/>
<defs>
<linearGradient id="paint0_linear_770_987" x1="-1.14168" y1="0.923828" x2="36.673" y2="2.31986" gradientUnits="userSpaceOnUse">
<stop stop-color="#4AA1FF"/>
<stop offset="0.4375" stop-color="#B5D9D7"/>
<stop offset="1" stop-color="#4AA1FF"/>
</linearGradient>
</defs>
</svg>
