<svg width="55" height="55" viewBox="0 0 55 55" fill="none" xmlns="http://www.w3.org/2000/svg">
<g clip-path="url(#clip0_438_4442)">
<path d="M27.5928 19.1874C28.3498 19.1874 28.9628 18.5739 28.9628 17.8173C28.9628 17.0607 28.3498 16.4473 27.5928 16.4473C21.5398 16.4473 16.6328 21.3543 16.6328 27.4076C16.6328 33.4606 21.5398 38.3676 27.5928 38.3676C33.6461 38.3676 38.5531 33.4606 38.5531 27.4076C38.5531 26.6507 37.9397 26.0376 37.1831 26.0376C36.4265 26.0376 35.813 26.6507 35.813 27.4076C35.813 31.9475 32.133 35.6279 27.5928 35.6279C23.0529 35.6279 19.3725 31.9475 19.3725 27.4076C19.3725 22.8674 23.0529 19.1874 27.5928 19.1874Z" fill="black"/>
<path d="M53.7323 19.2709C53.4943 18.5521 52.7189 18.1623 51.9997 18.4002C51.2972 18.6327 50.9061 19.3804 51.1155 20.09C55.2127 33.1371 47.9575 47.0352 34.9104 51.1323C21.8637 55.2295 7.96556 47.9743 3.86843 34.9272C-0.229124 21.8801 7.02646 7.98196 20.0732 3.88483C24.9029 2.36834 30.081 2.36834 34.9104 3.88483C35.6355 4.10345 36.4004 3.69306 36.619 2.96797C36.8343 2.25378 36.4394 1.49889 35.7299 1.2681C21.2426 -3.27718 5.81335 4.78239 1.26807 19.2701C-3.27722 33.7573 4.78277 49.1866 19.27 53.7319C33.7577 58.2772 49.1866 50.2176 53.7318 35.7299C55.4128 30.3723 55.4128 24.6286 53.7323 19.2709Z" fill="black"/>
<path d="M30.2015 9.78865C30.2087 9.00858 29.6094 8.3565 28.8315 8.29817C28.4223 8.26334 28.0128 8.22852 27.5928 8.22852C16.9996 8.22852 8.41211 16.816 8.41211 27.4092C8.41211 38.002 16.9996 46.5894 27.5928 46.5894C38.1856 46.5894 46.773 38.002 46.773 27.4092C46.773 26.9136 46.7428 26.4185 46.6819 25.9267C46.5724 25.1747 45.8742 24.654 45.1222 24.7635C44.3703 24.8726 43.8495 25.5713 43.9586 26.3232C43.9628 26.3517 43.9679 26.3799 43.9737 26.4084C44.0035 26.7403 44.0329 27.0693 44.0329 27.4083C44.0333 36.4884 36.6728 43.8489 27.5932 43.8497C18.5131 43.8502 11.1526 36.4892 11.1522 27.4096C11.1518 18.3299 18.5119 10.969 27.5919 10.9686H27.5923C27.9322 10.9686 28.2616 10.998 28.5927 11.0274L28.8495 11.0488C29.5654 11.0794 30.1705 10.5238 30.2007 9.80795C30.2011 9.80124 30.2011 9.79494 30.2015 9.78865Z" fill="black"/>
<path d="M35.8121 12.338V17.2508L26.6233 26.4396C26.0791 26.9654 26.064 27.8327 26.5898 28.3769C27.1155 28.9212 27.9829 28.9363 28.5271 28.4105C28.5385 28.3996 28.5498 28.3883 28.5607 28.3769L37.7494 19.1882H42.6623C43.0257 19.1882 43.374 19.0438 43.6312 18.7866L51.8511 10.5663C52.3861 10.0313 52.3861 9.16398 51.8511 8.62897C51.5943 8.37216 51.246 8.22781 50.8826 8.22781H46.7725V4.11767C46.7725 3.36111 46.159 2.74763 45.402 2.74805C45.039 2.74805 44.6907 2.8924 44.4339 3.1492L36.2137 11.3695C35.9564 11.6263 35.8121 11.9746 35.8121 12.338ZM38.5522 12.9053L44.0324 7.42509V9.59786C44.0324 10.3544 44.6458 10.9679 45.4024 10.9679H47.5752L42.095 16.4481H38.5522V12.9053Z" fill="black"/>
</g>
<defs>
<clipPath id="clip0_438_4442">
<rect width="55" height="55" fill="white"/>
</clipPath>
</defs>
</svg>
