<svg width="46" height="51" viewBox="0 0 46 51" fill="none" xmlns="http://www.w3.org/2000/svg">
<path d="M23.0001 37.6754C16.4939 37.6754 10.6681 34.5149 6.92649 31.8637C2.89304 29.0061 0.412094 26.1832 0.308414 26.0645C0.167988 25.9037 0.0898437 25.6915 0.0898438 25.471C0.0898437 25.2505 0.167988 25.0383 0.308414 24.8774C0.412094 24.7588 2.89376 21.9359 6.92649 19.0783C10.6681 16.4271 16.4939 13.2666 23.0001 13.2666C29.5062 13.2666 35.332 16.4271 39.0737 19.0783C43.1064 21.9359 45.5881 24.7586 45.6916 24.8774C45.832 25.0383 45.9101 25.2505 45.9101 25.471C45.9101 25.6915 45.832 25.9037 45.6916 26.0645C45.5881 26.1834 43.1064 29.0061 39.0737 31.8637C35.332 34.5149 29.5062 37.6754 23.0001 37.6754ZM2.04402 25.471C4.26801 27.7684 12.891 35.9393 23.0001 35.9393C33.1229 35.9393 41.735 27.7696 43.9567 25.4714C41.7332 23.1755 33.1098 15.0027 23.0001 15.0027C12.8903 15.0027 4.26819 23.1734 2.04402 25.471Z" fill="black"/>
<path d="M22.9972 37.6754C20.7487 37.6753 18.5508 36.9595 16.6813 35.6185C14.8118 34.2774 13.3547 32.3713 12.4942 30.1413C11.6338 27.9112 11.4087 25.4573 11.8474 23.0899C12.2861 20.7225 13.3688 18.5479 14.9587 16.8411C16.5486 15.1343 18.5743 13.972 20.7796 13.5011C22.9848 13.0302 25.2706 13.2719 27.3479 14.1956C29.4253 15.1194 31.2008 16.6836 32.4499 18.6906C33.6991 20.6976 34.3658 23.0572 34.3658 25.471C34.3624 28.7067 33.1636 31.8088 31.0323 34.0968C28.901 36.3848 26.0113 37.6718 22.9972 37.6754ZM22.9972 15.0027C21.0686 15.0027 19.1833 15.6167 17.5797 16.767C15.9762 17.9173 14.7263 19.5523 13.9883 21.4651C13.2503 23.3779 13.0572 25.4827 13.4335 27.5134C13.8098 29.544 14.7385 31.4093 16.1022 32.8733C17.466 34.3373 19.2035 35.3342 21.0951 35.7381C22.9866 36.1421 24.9473 35.9347 26.7291 35.1424C28.5109 34.3501 30.0338 33.0083 31.1053 31.2868C32.1768 29.5653 32.7487 27.5414 32.7487 25.471C32.7457 22.6956 31.7174 20.0347 29.8893 18.0722C28.0611 16.1097 25.5825 15.0058 22.9972 15.0027Z" fill="black"/>
<path d="M23 11.6673C22.7855 11.6673 22.5799 11.5759 22.4282 11.4131C22.2766 11.2503 22.1914 11.0295 22.1914 10.7993V7.51844C22.1914 7.28822 22.2766 7.06743 22.4282 6.90464C22.5799 6.74185 22.7855 6.65039 23 6.65039C23.2145 6.65039 23.4201 6.74185 23.5718 6.90464C23.7234 7.06743 23.8086 7.28822 23.8086 7.51844V10.7993C23.8086 11.0295 23.7234 11.2503 23.5718 11.4131C23.4201 11.5759 23.2145 11.6673 23 11.6673Z" fill="black"/>
<path d="M16.1658 13.6323C16.0238 13.6324 15.8842 13.5923 15.7612 13.5161C15.6382 13.4398 15.536 13.3302 15.465 13.1981L13.9377 10.3567C13.8322 10.1574 13.8043 9.9214 13.8603 9.70018C13.9162 9.47897 14.0514 9.29049 14.2363 9.17587C14.4212 9.06126 14.6409 9.02982 14.8473 9.08841C15.0537 9.147 15.2302 9.29086 15.3382 9.48861L16.8655 12.33C16.9365 12.4619 16.9739 12.6116 16.974 12.7639C16.974 12.9162 16.9367 13.0659 16.8658 13.1979C16.795 13.3298 16.693 13.4395 16.5701 13.5157C16.4473 13.592 16.3077 13.6322 16.1658 13.6323Z" fill="black"/>
<path d="M14.64 41.8862C14.4981 41.8861 14.3587 41.8459 14.2359 41.7696C14.113 41.6934 14.011 41.5838 13.9402 41.4518C13.8693 41.3198 13.832 41.1702 13.832 41.0178C13.8321 40.8655 13.8695 40.7159 13.9405 40.5839L15.4678 37.7427C15.5205 37.6432 15.591 37.5559 15.6753 37.4857C15.7596 37.4156 15.856 37.364 15.9589 37.334C16.0618 37.304 16.1692 37.2962 16.275 37.311C16.3807 37.3257 16.4827 37.3628 16.575 37.42C16.6674 37.4773 16.7483 37.5535 16.8131 37.6445C16.8778 37.7354 16.9252 37.8392 16.9525 37.9499C16.9797 38.0606 16.9863 38.1759 16.9719 38.2894C16.9574 38.4028 16.9222 38.512 16.8683 38.6108L15.341 41.452C15.2699 41.5841 15.1678 41.6938 15.0447 41.77C14.9217 41.8462 14.7821 41.8863 14.64 41.8862Z" fill="black"/>
<path d="M23 44.2912C22.7855 44.2912 22.5799 44.1997 22.4282 44.0369C22.2766 43.8741 22.1914 43.6533 22.1914 43.4231V40.1425C22.1914 39.9122 22.2766 39.6914 22.4282 39.5287C22.5799 39.3659 22.7855 39.2744 23 39.2744C23.2145 39.2744 23.4201 39.3659 23.5718 39.5287C23.7234 39.6914 23.8086 39.9122 23.8086 40.1425V43.4231C23.8086 43.6533 23.7234 43.8741 23.5718 44.0369C23.4201 44.1997 23.2145 44.2912 23 44.2912Z" fill="black"/>
<path d="M31.3599 41.8867C31.2178 41.8867 31.0783 41.8466 30.9553 41.7704C30.8322 41.6942 30.7301 41.5845 30.6591 41.4524L29.1318 38.6112C29.0245 38.4118 28.9955 38.1749 29.051 37.9525C29.1065 37.7301 29.2421 37.5405 29.4278 37.4254C29.6135 37.3103 29.8343 37.2791 30.0414 37.3387C30.2486 37.3983 30.4252 37.5438 30.5324 37.7432L32.0598 40.5844C32.1308 40.7163 32.1682 40.866 32.1682 41.0183C32.1683 41.1707 32.1309 41.3204 32.06 41.4523C31.9891 41.5843 31.8871 41.6939 31.7642 41.7702C31.6414 41.8464 31.5018 41.8866 31.3599 41.8867Z" fill="black"/>
<path d="M29.8314 13.6334C29.6895 13.6332 29.5501 13.593 29.4273 13.5168C29.3044 13.4405 29.2024 13.3309 29.1316 13.1989C29.0607 13.067 29.0234 12.9173 29.0234 12.765C29.0235 12.6126 29.0609 12.463 29.1319 12.3311L30.6592 9.48968C30.7664 9.29016 30.9431 9.14453 31.1504 9.08484C31.3576 9.02515 31.5784 9.05629 31.7643 9.1714C31.9502 9.28651 32.0858 9.47617 32.1414 9.69865C32.197 9.92113 32.168 10.1582 32.0608 10.3577L30.5334 13.1991C30.4623 13.3314 30.36 13.4412 30.2367 13.5175C30.1135 13.5937 29.9737 13.6337 29.8314 13.6334Z" fill="black"/>
</svg>
