<svg width="42" height="42" viewBox="0 0 42 42" fill="none" xmlns="http://www.w3.org/2000/svg">
<path d="M17.8533 26.5791C17.6964 26.5794 17.541 26.5487 17.396 26.4887C17.251 26.4288 17.1193 26.3407 17.0084 26.2297L11.6561 20.8772C11.5036 20.7247 11.418 20.5179 11.418 20.3023C11.418 20.0866 11.5036 19.8798 11.6561 19.7274C11.8086 19.5749 12.0154 19.4892 12.231 19.4892C12.4467 19.4892 12.6535 19.5749 12.806 19.7273L17.8533 24.7749L29.1928 13.432C29.2682 13.3563 29.3579 13.2962 29.4566 13.2552C29.5553 13.2141 29.6611 13.193 29.768 13.1929C29.8749 13.1928 29.9808 13.2138 30.0795 13.2546C30.1783 13.2955 30.2681 13.3554 30.3437 13.431C30.4192 13.5066 30.4792 13.5964 30.5201 13.6951C30.5609 13.7939 30.5819 13.8998 30.5818 14.0067C30.5817 14.1136 30.5605 14.2194 30.5195 14.3181C30.4785 14.4168 30.4184 14.5065 30.3426 14.5819L18.6986 26.2295C18.5877 26.3406 18.4559 26.4286 18.3109 26.4886C18.1658 26.5486 18.0103 26.5794 17.8533 26.5791Z" fill="black"/>
<path d="M21.1428 39.8235L10.3854 32.2467C9.02897 31.3185 7.92096 30.0717 7.15858 28.6156C6.3962 27.1594 6.00273 25.5385 6.01268 23.8949L5.95312 4.99119L7.03471 5.3634C9.32921 6.14993 11.7928 6.30579 14.1682 5.81469C16.5056 5.32877 18.6752 4.23939 20.4611 2.6549L21.0007 2.17627L21.5403 2.6549C23.3252 4.23867 25.4934 5.32804 27.8296 5.81486C30.2049 6.30641 32.6687 6.15048 34.9631 5.3634L36.0439 4.99136L36.0407 6.13447C36.0248 12.0548 36.0063 17.9751 35.9851 23.8955C35.9952 25.52 35.6116 27.1227 34.8672 28.5666C34.1227 30.0104 33.0396 31.2525 31.7104 32.1864L21.1428 39.8235ZM7.58701 7.22778L7.63901 23.8899C7.62822 25.2736 7.95861 26.6387 8.60093 27.8643C9.24326 29.09 10.1777 30.1385 11.3217 30.917L21.1309 37.8255L30.7575 30.8682C31.8792 30.0848 32.7932 29.0402 33.4207 27.8244C34.0481 26.6087 34.3701 25.2584 34.3587 23.8904C34.3774 18.3358 34.3949 12.7815 34.4112 7.22757C32.1522 7.8192 29.7871 7.88084 27.5004 7.40766L27.5 7.40745C25.1195 6.91236 22.8914 5.85663 21.0007 4.32789C19.1088 5.85752 16.8791 6.91332 14.4969 7.40745C12.2105 7.88064 9.84573 7.81915 7.58701 7.22778Z" fill="black"/>
</svg>
