<svg width="30" height="22" viewBox="0 0 30 22" fill="none" xmlns="http://www.w3.org/2000/svg">
<path fill-rule="evenodd" clip-rule="evenodd" d="M19.9206 2.29492C19.5161 2.29492 19.1882 1.96703 19.1882 1.5625C19.1882 1.15803 19.5161 0.830078 19.9206 0.830078H28.9552C29.3598 0.830078 29.6877 1.15803 29.6877 1.5625V10.8888C29.6877 11.2933 29.3598 11.6212 28.9552 11.6212C28.5507 11.6212 28.2228 11.2933 28.2228 10.8888V3.33062L15.4106 16.1427C15.1246 16.4287 14.6609 16.4287 14.3749 16.1427L10.3754 12.1433L1.3482 21.1705L0.3125 20.1349L9.8576 10.5898C10.1436 10.3038 10.6073 10.3038 10.8933 10.5898L14.8928 14.5892L27.1871 2.29492H19.9206Z" fill="black"/>
</svg>
