<svg width="66" height="66" viewBox="0 0 66 66" fill="none" xmlns="http://www.w3.org/2000/svg">
<path d="M28.0541 41.7672C27.8075 41.7677 27.5633 41.7194 27.3354 41.6252C27.1076 41.5309 26.9006 41.3926 26.7264 41.2181L18.3156 32.8071C18.076 32.5675 17.9414 32.2425 17.9414 31.9036C17.9414 31.5648 18.076 31.2398 18.3156 31.0002C18.5552 30.7606 18.8802 30.6259 19.2191 30.6259C19.5579 30.6259 19.8829 30.7605 20.1225 31.0001L28.0541 38.932L45.8732 21.1075C45.9918 20.9885 46.1327 20.8941 46.2878 20.8296C46.4429 20.7651 46.6092 20.7318 46.7772 20.7317C46.9451 20.7315 47.1115 20.7645 47.2667 20.8287C47.422 20.8929 47.563 20.9871 47.6818 21.1059C47.8006 21.2247 47.8948 21.3657 47.959 21.521C48.0232 21.6762 48.0562 21.8426 48.056 22.0105C48.0559 22.1785 48.0226 22.3448 47.9581 22.4999C47.8936 22.655 47.7992 22.7959 47.6802 22.9145L29.3825 41.2178C29.2081 41.3924 29.0011 41.5308 28.7731 41.625C28.5451 41.7193 28.3008 41.7676 28.0541 41.7672Z" fill="black"/>
<path d="M33.225 62.5799L16.3205 50.6735C14.1889 49.2149 12.4478 47.2556 11.2498 44.9674C10.0517 42.6792 9.43342 40.132 9.44906 37.5492L9.35547 7.84337L11.0551 8.42827C14.6607 9.66424 18.5322 9.90916 22.2648 9.13744C25.938 8.37385 29.3473 6.66197 32.1537 4.17206L33.0016 3.41992L33.8495 4.17206C36.6545 6.66084 40.0617 8.3727 43.7328 9.1377C47.4654 9.91014 51.3371 9.66512 54.9425 8.42827L56.6409 7.84364L56.6359 9.63996C56.6109 18.9433 56.5818 28.2467 56.5486 37.5502C56.5644 40.1029 55.9616 42.6214 54.7918 44.8904C53.622 47.1593 51.9199 49.1111 49.8312 50.5787L33.225 62.5799ZM11.923 11.358L12.0047 37.5414C11.9878 39.7158 12.5069 41.8609 13.5163 43.7869C14.5257 45.7129 15.9941 47.3605 17.7918 48.5839L33.2063 59.4402L48.3338 48.5072C50.0964 47.2762 51.5327 45.6346 52.5187 43.7242C53.5047 41.8137 54.0107 39.6919 53.9929 37.5421C54.0222 28.8134 54.0497 20.0853 54.0752 11.3577C50.5255 12.2874 46.8089 12.3842 43.2155 11.6407L43.2149 11.6404C39.4741 10.8623 35.9728 9.20334 33.0016 6.80104C30.0287 9.20475 26.5248 10.8639 22.7815 11.6404C19.1885 12.3839 15.4724 12.2873 11.923 11.358Z" fill="black"/>
</svg>
