<svg width="37" height="37" viewBox="0 0 37 37" fill="none" xmlns="http://www.w3.org/2000/svg">
<g clip-path="url(#clip0_438_4731)">
<path d="M33.733 7.19283V17.2611C33.733 26.4303 27.5063 34.4255 18.612 36.6769C9.73259 34.4329 3.50586 26.4303 3.50586 17.2611V7.19283C10.4979 6.4052 14.4584 3.74509 18.6194 0.63916C22.7805 3.74509 26.7409 6.4052 33.733 7.19283Z" fill="black"/>
<path d="M18.6185 35.3167C10.759 32.7801 5.35938 25.3656 5.35938 16.8869V8.74511C10.8811 7.52119 14.9374 5.25959 18.6185 2.67871C22.3782 5.33055 26.356 7.5478 31.8777 8.75398V16.8957C31.8777 25.3656 26.4781 32.7801 18.6185 35.3167Z" fill="white"/>
<path d="M16.1152 24.8184L12.3926 21.0958L14.2799 19.201L16.1152 21.0289L22.9587 14.1929L24.846 16.0802L16.1152 24.8184Z" fill="black"/>
</g>
<defs>
<clipPath id="clip0_438_4731">
<rect width="36.0378" height="36.0378" fill="white" transform="translate(0.599609 0.63916)"/>
</clipPath>
</defs>
</svg>
