<svg width="27" height="39" viewBox="0 0 27 39" fill="none" xmlns="http://www.w3.org/2000/svg">
<path d="M22.2885 4.2198C20.8902 2.9591 19.2388 2.01167 17.4447 1.44096C15.6506 0.870256 13.7553 0.689437 11.8857 0.910613C9.06373 1.23291 6.41879 2.44919 4.33731 4.38174C2.25583 6.31429 0.846901 8.86183 0.316371 11.6521C-0.214158 14.4425 0.16152 17.3293 1.38852 19.8909C2.61551 22.4525 4.62952 24.5546 7.13628 25.8901V33.7405C7.13669 34.1561 7.30195 34.5545 7.5958 34.8483C7.88964 35.1422 8.28805 35.3074 8.70361 35.3078H10.2709V36.8752C10.2714 37.2907 10.4366 37.6892 10.7305 37.983C11.0243 38.2768 11.4227 38.4421 11.8383 38.4425H14.9729C15.3885 38.4421 15.7869 38.2768 16.0808 37.983C16.3746 37.6892 16.5399 37.2907 16.5403 36.8752V35.3078H18.1076C18.5232 35.3074 18.9216 35.1422 19.2154 34.8483C19.5093 34.5545 19.6745 34.1561 19.6749 33.7405V25.8904C21.5664 24.8831 23.1866 23.4339 24.3979 21.6661C25.6091 19.8983 26.3757 17.8641 26.6322 15.7366C26.8888 13.609 26.6279 11.451 25.8716 9.4459C25.1154 7.44081 23.8862 5.64797 22.2885 4.2198ZM18.1076 29.0385V30.6059H8.70361V29.0385H18.1076ZM14.9741 36.8752H11.8383V35.3078H14.9733L14.9741 36.8752ZM15.7566 33.7405H8.70361V32.1732H18.1076V33.7405H15.7566ZM18.5476 24.7066C18.4157 24.7709 18.3044 24.871 18.2266 24.9955C18.1488 25.1199 18.1076 25.2638 18.1076 25.4106V27.4712H14.1893V23.8774L16.3107 21.7559C16.4534 21.6081 16.5324 21.4101 16.5306 21.2047C16.5288 20.9992 16.4464 20.8026 16.3011 20.6573C16.1558 20.512 15.9593 20.4296 15.7538 20.4278C15.5483 20.4261 15.3504 20.505 15.2026 20.6478L13.4056 22.4447L11.6087 20.6478C11.4609 20.505 11.2629 20.4261 11.0574 20.4278C10.852 20.4296 10.6554 20.512 10.5101 20.6573C10.3648 20.8026 10.2824 20.9992 10.2806 21.2047C10.2788 21.4101 10.3578 21.6081 10.5006 21.7559L12.6219 23.8774V27.4712H8.70361V25.4106C8.70365 25.2638 8.66242 25.1199 8.58461 24.9955C8.5068 24.871 8.39556 24.7709 8.26358 24.7066C5.97594 23.5955 4.11063 21.7721 2.94794 19.5103C1.78525 17.2485 1.38798 14.6704 1.81582 12.1635C2.24365 9.65655 3.47349 7.35618 5.32054 5.608C7.16758 3.85982 9.53207 2.75827 12.0587 2.46886C12.5113 2.4183 12.9663 2.39287 13.4217 2.39268C16.3104 2.38406 19.0988 3.45172 21.2431 5.38746C22.6804 6.67215 23.7794 8.29095 24.443 10.1009C25.1066 11.911 25.3143 13.8565 25.0479 15.7658C24.7816 17.6751 24.0492 19.4895 22.9155 21.0487C21.7819 22.608 20.2818 23.8644 18.5476 24.7066Z" fill="black"/>
</svg>
