<svg width="68" height="73" viewBox="0 0 68 73" fill="none" xmlns="http://www.w3.org/2000/svg">
<path d="M34.0001 54.5415C24.3824 54.5415 15.7703 49.8695 10.2392 45.9503C4.27667 41.726 0.609183 37.553 0.455917 37.3777C0.24833 37.1399 0.132812 36.8262 0.132812 36.5002C0.132812 36.1743 0.24833 35.8606 0.455917 35.6228C0.609183 35.4475 4.27773 31.2745 10.2392 27.0502C15.7703 23.131 24.3824 18.459 34.0001 18.459C43.6179 18.459 52.2299 23.131 57.7611 27.0502C63.7225 31.2745 67.391 35.4472 67.544 35.6228C67.7516 35.8606 67.8671 36.1743 67.8671 36.5002C67.8671 36.8262 67.7516 37.1399 67.544 37.3777C67.391 37.5533 63.7225 41.726 57.7611 45.9503C52.2299 49.8695 43.6179 54.5415 34.0001 54.5415ZM3.02159 36.5002C6.30923 39.8965 19.0563 51.9751 34.0001 51.9751C48.9644 51.9751 61.6952 39.8982 64.9794 36.5008C61.6926 33.1069 48.945 21.0254 34.0001 21.0254C19.0552 21.0254 6.3095 33.1038 3.02159 36.5002Z" fill="black"/>
<path d="M34.0006 54.5415C30.6768 54.5415 27.4276 53.4833 24.664 51.5009C21.9004 49.5184 19.7464 46.7008 18.4745 43.4042C17.2026 40.1075 16.8698 36.4801 17.5183 32.9804C18.1667 29.4808 19.7673 26.2661 22.1176 23.7431C24.468 21.22 27.4624 19.5017 30.7224 18.8056C33.9823 18.1095 37.3614 18.4668 40.4322 19.8323C43.503 21.1978 46.1276 23.5102 47.9742 26.4771C49.8208 29.444 50.8064 32.932 50.8064 36.5003C50.8014 41.2835 49.0291 45.8692 45.8785 49.2515C42.7279 52.6337 38.4562 54.5362 34.0006 54.5415ZM34.0006 21.0254C31.1496 21.0255 28.3627 21.9331 25.9922 23.6335C23.6217 25.334 21.7741 27.7508 20.6831 30.5785C19.5921 33.4061 19.3067 36.5176 19.863 39.5194C20.4192 42.5212 21.7921 45.2786 23.8081 47.4427C25.8241 49.6069 28.3925 51.0807 31.1888 51.6778C33.985 52.2749 36.8833 51.9684 39.5173 50.7971C42.1513 49.6259 44.4026 47.6424 45.9865 45.0976C47.5704 42.5528 48.4158 39.5609 48.4158 36.5003C48.4115 32.3975 46.8913 28.464 44.1889 25.5629C41.4864 22.6619 37.8224 21.03 34.0006 21.0254Z" fill="black"/>
<path d="M34 16.0951C33.683 16.0951 33.379 15.9599 33.1548 15.7192C32.9306 15.4786 32.8047 15.1522 32.8047 14.8119V9.96191C32.8047 9.62159 32.9306 9.2952 33.1548 9.05455C33.379 8.81391 33.683 8.67871 34 8.67871C34.317 8.67871 34.621 8.81391 34.8452 9.05455C35.0694 9.2952 35.1953 9.62159 35.1953 9.96191V14.8119C35.1953 15.1522 35.0694 15.4786 34.8452 15.7192C34.621 15.9599 34.317 16.0951 34 16.0951Z" fill="black"/>
<path d="M23.8992 18.9999C23.6892 19 23.4829 18.9408 23.301 18.8281C23.1192 18.7154 22.9682 18.5533 22.8632 18.358L20.6054 14.1577C20.4494 13.8631 20.4083 13.5142 20.491 13.1872C20.5737 12.8602 20.7735 12.5816 21.0469 12.4122C21.3202 12.2427 21.6449 12.1963 21.9501 12.2829C22.2552 12.3695 22.5161 12.5821 22.6757 12.8745L24.9335 17.0748C25.0385 17.2698 25.0937 17.491 25.0938 17.7162C25.0939 17.9414 25.0388 18.1626 24.934 18.3577C24.8292 18.5528 24.6784 18.7148 24.4968 18.8276C24.3152 18.9403 24.1089 18.9997 23.8992 18.9999Z" fill="black"/>
<path d="M21.6397 60.7663C21.4299 60.7661 21.2239 60.7067 21.0423 60.594C20.8607 60.4813 20.7099 60.3192 20.6051 60.1241C20.5004 59.9291 20.4452 59.7078 20.4453 59.4826C20.4454 59.2574 20.5007 59.0362 20.6056 58.8412L22.8634 54.6412C22.9413 54.494 23.0456 54.3649 23.1702 54.2612C23.2948 54.1576 23.4372 54.0814 23.5893 54.037C23.7415 53.9927 23.9003 53.9811 24.0566 54.0029C24.2129 54.0247 24.3637 54.0795 24.5002 54.1641C24.6367 54.2487 24.7563 54.3615 24.852 54.4959C24.9478 54.6304 25.0178 54.7838 25.0581 54.9474C25.0984 55.111 25.1082 55.2816 25.0868 55.4492C25.0655 55.6169 25.0134 55.7784 24.9337 55.9244L22.6759 60.1244C22.5709 60.3197 22.4199 60.4819 22.238 60.5946C22.0561 60.7072 21.8497 60.7665 21.6397 60.7663Z" fill="black"/>
<path d="M34 64.3213C33.683 64.3213 33.379 64.1861 33.1548 63.9455C32.9306 63.7048 32.8047 63.3785 32.8047 63.0381V58.1885C32.8047 57.8481 32.9306 57.5218 33.1548 57.2811C33.379 57.0405 33.683 56.9053 34 56.9053C34.317 56.9053 34.621 57.0405 34.8452 57.2811C35.0694 57.5218 35.1953 57.8481 35.1953 58.1885V63.0381C35.1953 63.3785 35.0694 63.7048 34.8452 63.9455C34.621 64.1861 34.317 64.3213 34 64.3213Z" fill="black"/>
<path d="M46.3601 60.7669C46.1502 60.767 45.9439 60.7077 45.762 60.595C45.5801 60.4823 45.4291 60.3202 45.3242 60.125L43.0664 55.9249C42.9079 55.6301 42.8649 55.2799 42.947 54.9511C43.0291 54.6224 43.2294 54.3421 43.504 54.1719C43.7786 54.0017 44.1049 53.9556 44.4111 54.0437C44.7173 54.1318 44.9784 54.3469 45.1369 54.6417L47.3947 58.8418C47.4997 59.0368 47.555 59.258 47.555 59.4832C47.5551 59.7084 47.5 59.9297 47.3951 60.1248C47.2903 60.3199 47.1395 60.4819 46.9579 60.5946C46.7762 60.7073 46.5699 60.7667 46.3601 60.7669Z" fill="black"/>
<path d="M44.1006 19.0012C43.8909 19.001 43.6848 18.9415 43.5032 18.8288C43.3216 18.7161 43.1709 18.5541 43.0661 18.359C42.9613 18.1639 42.9062 17.9426 42.9063 17.7175C42.9063 17.4923 42.9616 17.2711 43.0665 17.0761L45.3244 12.8757C45.4829 12.5808 45.744 12.3655 46.0504 12.2773C46.3567 12.189 46.6832 12.235 46.958 12.4052C47.2327 12.5754 47.4332 12.8557 47.5154 13.1846C47.5976 13.5135 47.5547 13.864 47.3962 14.1589L45.1384 18.3593C45.0333 18.5548 44.882 18.7171 44.6998 18.8298C44.5176 18.9425 44.3109 19.0016 44.1006 19.0012Z" fill="black"/>
<path d="M43.0549 35.9759C42.7379 35.9759 42.4339 35.8407 42.2097 35.6C41.9855 35.3594 41.8596 35.033 41.8596 34.6927V31.7881H39.1523C38.8353 31.7881 38.5313 31.6529 38.3071 31.4122C38.083 31.1716 37.957 30.8452 37.957 30.5049C37.957 30.1646 38.083 29.8382 38.3071 29.5975C38.5313 29.3569 38.8353 29.2217 39.1523 29.2217H43.0538C43.3709 29.2217 43.6749 29.3569 43.8991 29.5975C44.1232 29.8382 44.2492 30.1646 44.2492 30.5049V34.6927C44.2492 35.0328 44.1234 35.359 43.8994 35.5996C43.6755 35.8403 43.3717 35.9756 43.0549 35.9759Z" fill="black"/>
<path d="M24.9453 43.7784C24.7089 43.7784 24.4778 43.7031 24.2812 43.5621C24.0847 43.4211 23.9315 43.2207 23.841 42.9862C23.7505 42.7517 23.7268 42.4937 23.773 42.2448C23.8191 41.9959 23.9329 41.7673 24.1001 41.5878L31.2704 33.8903C31.3814 33.7711 31.5132 33.6766 31.6582 33.6121C31.8032 33.5476 31.9586 33.5144 32.1156 33.5145C32.2726 33.5144 32.428 33.5476 32.573 33.6121C32.7181 33.6766 32.8498 33.7711 32.9608 33.8903L35.586 36.7088L42.2112 29.5964C42.4354 29.3558 42.7395 29.2206 43.0565 29.2207C43.3735 29.2208 43.6775 29.356 43.9017 29.5967C44.1258 29.8374 44.2517 30.1638 44.2516 30.5041C44.2516 30.8444 44.1256 31.1708 43.9014 31.4114L36.4309 39.4309C36.2068 39.6715 35.9029 39.8066 35.586 39.8067C35.429 39.8067 35.2736 39.7735 35.1286 39.709C34.9835 39.6445 34.8518 39.55 34.7408 39.4309L32.1148 36.6132L25.7905 43.4025C25.6797 43.5219 25.5479 43.6165 25.4029 43.681C25.2578 43.7455 25.1023 43.7786 24.9453 43.7784Z" fill="black"/>
</svg>
